# Blender v2.80 (sub 75) OBJ File: 'd20.blend'
# www.blender.org
mtllib d20.mtl
o Icosphere
v 0.000000 -1.000000 -0.000000
v 0.723600 -0.447215 0.525720
v -0.276385 -0.447215 0.850640
v 0.723600 -0.447215 -0.525720
v -0.894425 -0.447215 -0.000000
v -0.276385 -0.447215 -0.850640
v 0.894425 0.447215 0.000000
v 0.276385 0.447215 0.850640
v -0.723600 0.447215 0.525720
v -0.723600 0.447215 -0.525720
v 0.276385 0.447215 -0.850640
v 0.000000 1.000000 0.000000
vt 0.180950 0.999700
vt 0.089792 0.667415
vt 0.272107 0.667415
vt 0.454422 0.667415
vt 0.363264 0.999700
vt 0.272107 0.667415
vt 0.910209 0.999700
vt 0.819051 0.667415
vt 1.001366 0.667415
vt 0.727894 0.999700
vt 0.636737 0.667415
vt 0.819051 0.667415
vt 0.545579 0.999700
vt 0.454422 0.667415
vt 0.636737 0.667415
vt 0.363264 0.335133
vt 0.180950 0.335133
vt 0.910209 0.335133
vt 0.727894 0.335133
vt 0.545579 0.335133
vt 0.272107 0.667415
vt 0.180950 0.335133
vt 0.363264 0.335133
vt 0.089791 0.667415
vt -0.001366 0.335133
vt 0.180950 0.335133
vt 0.819051 0.667415
vt 0.727894 0.335133
vt 0.910209 0.335133
vt 0.636737 0.667415
vt 0.545579 0.335133
vt 0.727894 0.335133
vt 0.454422 0.667415
vt 0.363264 0.335133
vt 0.545579 0.335133
vt 0.272107 0.002849
vt 0.089791 0.002849
vt 0.819051 0.002849
vt 0.636737 0.002849
vt 0.454422 0.002849
vn 0.1876 -0.7947 0.5774
vn 0.6071 -0.7947 -0.0000
vn -0.4911 -0.7947 0.3568
vn -0.4911 -0.7947 -0.3568
vn 0.1876 -0.7947 -0.5774
vn 0.9822 -0.1876 -0.0000
vn 0.3035 -0.1876 0.9342
vn -0.7946 -0.1876 0.5774
vn -0.7946 -0.1876 -0.5774
vn 0.3035 -0.1876 -0.9342
vn 0.7946 0.1876 0.5774
vn -0.3035 0.1876 0.9342
vn -0.9822 0.1876 0.0000
vn -0.3035 0.1876 -0.9342
vn 0.7946 0.1876 -0.5774
vn 0.4911 0.7947 0.3568
vn -0.1876 0.7947 0.5774
vn -0.6071 0.7947 0.0000
vn -0.1876 0.7947 -0.5774
vn 0.4911 0.7947 -0.3568
usemtl Material.001
s 1
f 1/1/1 2/2/1 3/3/1
f 2/4/2 1/5/2 4/6/2
f 1/7/3 3/8/3 5/9/3
f 1/10/4 5/11/4 6/12/4
f 1/13/5 6/14/5 4/15/5
f 2/4/6 4/6/6 7/16/6
f 3/3/7 2/2/7 8/17/7
f 5/9/8 3/8/8 9/18/8
f 6/12/9 5/11/9 10/19/9
f 4/15/10 6/14/10 11/20/10
f 2/21/11 7/22/11 8/23/11
f 3/24/12 8/25/12 9/26/12
f 5/27/13 9/28/13 10/29/13
f 6/30/14 10/31/14 11/32/14
f 4/33/15 11/34/15 7/35/15
f 8/23/16 7/22/16 12/36/16
f 9/26/17 8/25/17 12/37/17
f 10/29/18 9/28/18 12/38/18
f 11/32/19 10/31/19 12/39/19
f 7/35/20 11/34/20 12/40/20
