# Blender v2.80 (sub 75) OBJ File: ''
# www.blender.org
mtllib node.mtl
o Sphere.001
v 0.000000 -0.005672 -0.005672
v 0.000000 0.000000 -0.008022
v 0.005672 0.000000 -0.005672
v 0.004011 -0.005672 -0.004011
v 0.000000 0.005672 -0.005672
v 0.000000 0.008022 0.000000
v 0.004011 0.005672 -0.004011
v 0.000000 -0.008022 -0.000000
v 0.008022 0.000000 0.000000
v 0.005672 -0.005672 -0.000000
v 0.005672 0.005672 0.000000
v 0.005672 -0.000000 0.005672
v 0.004011 -0.005672 0.004011
v 0.004011 0.005672 0.004011
v 0.000000 -0.000000 0.008022
v 0.000000 -0.005672 0.005672
v 0.000000 0.005672 0.005672
v -0.005672 -0.000000 0.005672
v -0.004011 -0.005672 0.004011
v -0.004011 0.005672 0.004011
v -0.008022 0.000000 0.000000
v -0.005672 -0.005672 -0.000000
v -0.005672 0.005672 0.000000
v -0.004011 0.005672 -0.004011
v -0.005672 0.000000 -0.005672
v -0.004011 -0.005672 -0.004011
vt 0.750000 0.250000
vt 0.750000 0.500000
vt 0.625000 0.500000
vt 0.625000 0.250000
vt 0.750000 0.750000
vt 0.687500 1.000000
vt 0.625000 0.750000
vt 0.687500 0.000000
vt 0.500000 0.500000
vt 0.500000 0.250000
vt 0.562500 1.000000
vt 0.500000 0.750000
vt 0.562500 0.000000
vt 0.375000 0.500000
vt 0.375000 0.250000
vt 0.437500 1.000000
vt 0.375000 0.750000
vt 0.437500 0.000000
vt 0.250000 0.500000
vt 0.250000 0.250000
vt 0.312500 1.000000
vt 0.250000 0.750000
vt 0.312500 0.000000
vt 0.125000 0.500000
vt 0.125000 0.250000
vt 0.187500 1.000000
vt 0.125000 0.750000
vt 0.187500 0.000000
vt 0.000000 0.500000
vt 0.000000 0.250000
vt 0.062500 1.000000
vt 0.000000 0.750000
vt 0.062500 0.000000
vt 1.000000 0.500000
vt 1.000000 0.750000
vt 0.875000 0.750000
vt 0.875000 0.500000
vt 1.000000 0.250000
vt 0.875000 0.250000
vt 0.937500 1.000000
vt 0.937500 0.000000
vt 0.812500 0.000000
vt 0.812500 1.000000
vn 0.3574 -0.3574 -0.8628
vn 0.1566 0.9125 -0.3780
vn 0.1566 -0.9125 -0.3780
vn 0.3574 0.3574 -0.8628
vn 0.8628 -0.3574 -0.3574
vn 0.3780 0.9125 -0.1566
vn 0.3780 -0.9125 -0.1566
vn 0.8628 0.3574 -0.3574
vn 0.8628 -0.3574 0.3574
vn 0.3780 0.9125 0.1566
vn 0.3780 -0.9125 0.1566
vn 0.8628 0.3574 0.3574
vn 0.3574 -0.3574 0.8628
vn 0.1566 0.9125 0.3780
vn 0.1566 -0.9125 0.3780
vn 0.3574 0.3574 0.8628
vn -0.3574 -0.3574 0.8628
vn -0.1566 0.9125 0.3780
vn -0.1566 -0.9125 0.3780
vn -0.3574 0.3574 0.8628
vn -0.8628 -0.3574 0.3574
vn -0.3780 0.9125 0.1566
vn -0.3780 -0.9125 0.1566
vn -0.8628 0.3574 0.3574
vn -0.8628 0.3574 -0.3574
vn -0.8628 -0.3574 -0.3574
vn -0.3780 0.9125 -0.1566
vn -0.3780 -0.9125 -0.1566
vn -0.1566 -0.9125 -0.3780
vn -0.3574 0.3574 -0.8628
vn -0.3574 -0.3574 -0.8628
vn -0.1566 0.9125 -0.3780
usemtl None.001
s 1
f 1/1/1 2/2/1 3/3/1 4/4/1
f 5/5/2 6/6/2 7/7/2
f 8/8/3 1/1/3 4/4/3
f 2/2/4 5/5/4 7/7/4 3/3/4
f 4/4/5 3/3/5 9/9/5 10/10/5
f 7/7/6 6/11/6 11/12/6
f 8/13/7 4/4/7 10/10/7
f 3/3/8 7/7/8 11/12/8 9/9/8
f 10/10/9 9/9/9 12/14/9 13/15/9
f 11/12/10 6/16/10 14/17/10
f 8/18/11 10/10/11 13/15/11
f 9/9/12 11/12/12 14/17/12 12/14/12
f 13/15/13 12/14/13 15/19/13 16/20/13
f 14/17/14 6/21/14 17/22/14
f 8/23/15 13/15/15 16/20/15
f 12/14/16 14/17/16 17/22/16 15/19/16
f 16/20/17 15/19/17 18/24/17 19/25/17
f 17/22/18 6/26/18 20/27/18
f 8/28/19 16/20/19 19/25/19
f 15/19/20 17/22/20 20/27/20 18/24/20
f 19/25/21 18/24/21 21/29/21 22/30/21
f 20/27/22 6/31/22 23/32/22
f 8/33/23 19/25/23 22/30/23
f 18/24/24 20/27/24 23/32/24 21/29/24
f 21/34/25 23/35/25 24/36/25 25/37/25
f 22/38/26 21/34/26 25/37/26 26/39/26
f 23/35/27 6/40/27 24/36/27
f 8/41/28 22/38/28 26/39/28
f 8/42/29 26/39/29 1/1/29
f 25/37/30 24/36/30 5/5/30 2/2/30
f 26/39/31 25/37/31 2/2/31 1/1/31
f 24/36/32 6/43/32 5/5/32
