# Blender v2.80 (sub 75) OBJ File: 'GeneratedRig.blend'
# www.blender.org
mtllib Tposeboy.mtl
o Cube.008_Cube.009
v 0.057001 1.622831 0.038409
v 0.057001 1.767917 0.038409
v 0.057001 1.622831 -0.058073
v 0.057001 1.767917 -0.058073
v -0.046366 1.622831 0.038409
v -0.046366 1.767917 0.038409
v -0.046366 1.622831 -0.058073
v -0.046366 1.767917 -0.058073
v -0.169779 -0.028375 0.164223
v -0.169779 0.108239 0.164223
v -0.159281 -0.028375 -0.079068
v -0.159281 0.108239 -0.079068
v -0.033292 -0.028375 0.170113
v -0.033292 0.108239 0.170113
v -0.022794 -0.028375 -0.073178
v -0.022794 0.108239 -0.073178
v -0.164137 0.087035 0.063760
v -0.164137 0.605899 0.086008
v -0.158454 0.092677 -0.067821
v -0.158454 0.611541 -0.045573
v -0.032421 0.086792 0.069439
v -0.032421 0.605655 0.091686
v -0.026737 0.092433 -0.062142
v -0.026737 0.611297 -0.039894
v -0.161768 0.597386 0.089938
v -0.161768 1.110699 0.037201
v -0.156072 0.583897 -0.041358
v -0.156072 1.097210 -0.094095
v -0.030050 0.597967 0.095592
v -0.030050 1.111280 0.042855
v -0.024355 0.584478 -0.035704
v -0.024355 1.097791 -0.088441
v -0.173915 1.047922 0.075428
v -0.173915 1.257039 0.075428
v -0.173915 1.047922 -0.095092
v -0.173915 1.257039 -0.095092
v 0.157401 1.047922 0.075428
v 0.157401 1.257039 0.075428
v 0.157401 1.047922 -0.095092
v 0.157401 1.257039 -0.095092
v -0.169082 1.242894 0.059404
v -0.169082 1.387979 0.059404
v -0.169082 1.242894 -0.079068
v -0.169082 1.387979 -0.079068
v 0.152568 1.242894 0.059404
v 0.152568 1.387979 0.059404
v 0.152568 1.242894 -0.079068
v 0.152568 1.387979 -0.079068
v -0.191741 1.388088 0.072747
v -0.191741 1.533174 0.072747
v -0.191741 1.388088 -0.092411
v -0.191741 1.533174 -0.092411
v 0.175227 1.388088 0.072747
v 0.175227 1.533174 0.072747
v 0.175227 1.388088 -0.092411
v 0.175227 1.533174 -0.092411
v -0.219132 1.515111 0.080218
v -0.219132 1.689077 0.080218
v -0.219132 1.515111 -0.099882
v -0.219132 1.689077 -0.099882
v 0.202617 1.515111 0.080218
v 0.202617 1.689077 0.080218
v 0.202617 1.515111 -0.099882
v 0.202617 1.689077 -0.099882
v 0.108659 1.766883 0.090596
v 0.108659 2.056985 0.090596
v 0.108659 1.766883 -0.102321
v 0.108659 2.056985 -0.102321
v -0.098025 1.766883 0.090596
v -0.098025 2.056985 0.090596
v -0.098025 1.766883 -0.102321
v -0.098025 2.056985 -0.102321
v -0.543348 1.535932 -0.088274
v -0.543348 1.668256 -0.088274
v -0.194400 1.535932 -0.082534
v -0.194400 1.668256 -0.082534
v -0.546190 1.535932 0.062870
v -0.546190 1.668256 0.062870
v -0.197242 1.535932 0.068610
v -0.197242 1.668256 0.068610
v -0.871019 1.535932 -0.023190
v -0.871019 1.668256 -0.023190
v -0.530788 1.535932 -0.088090
v -0.530788 1.668256 -0.088090
v -0.839803 1.535932 0.124973
v -0.839803 1.668256 0.124973
v -0.499572 1.535932 0.060073
v -0.499572 1.668256 0.060073
v -0.989243 1.535932 -0.004834
v -0.989243 1.668256 -0.004834
v -0.865426 1.535932 -0.024861
v -0.865426 1.668256 -0.024861
v -0.965110 1.535932 0.144373
v -0.965110 1.668256 0.144373
v -0.841292 1.535932 0.124347
v -0.841292 1.668256 0.124347
v 0.160587 -0.032724 0.165901
v 0.160587 0.103890 0.165901
v 0.150089 -0.032724 -0.077390
v 0.150089 0.103890 -0.077390
v 0.024100 -0.032724 0.171791
v 0.024100 0.103890 0.171791
v 0.013602 -0.032724 -0.071501
v 0.013602 0.103890 -0.071501
v 0.154945 0.082686 0.065438
v 0.154945 0.601549 0.087686
v 0.149262 0.088327 -0.066143
v 0.149262 0.607191 -0.043895
v 0.023229 0.082442 0.071117
v 0.023229 0.601306 0.093364
v 0.017545 0.088084 -0.060464
v 0.017545 0.606948 -0.038216
v 0.152576 0.593037 0.091616
v 0.152576 1.106350 0.038879
v 0.146880 0.579548 -0.039680
v 0.146880 1.092860 -0.092417
v 0.020858 0.593618 0.097270
v 0.020858 1.106930 0.044533
v 0.015163 0.580128 -0.034026
v 0.015163 1.093441 -0.086763
v 0.543348 1.535932 -0.088274
v 0.543348 1.668256 -0.088274
v 0.194400 1.535932 -0.082534
v 0.194400 1.668256 -0.082534
v 0.546190 1.535932 0.062870
v 0.546190 1.668256 0.062870
v 0.197242 1.535932 0.068610
v 0.197242 1.668256 0.068610
v 0.871019 1.535932 -0.023190
v 0.871019 1.668256 -0.023190
v 0.530788 1.535932 -0.088090
v 0.530788 1.668256 -0.088090
v 0.839803 1.535932 0.124973
v 0.839803 1.668256 0.124973
v 0.499572 1.535932 0.060073
v 0.499572 1.668256 0.060073
v 0.989243 1.535932 -0.004834
v 0.989243 1.668256 -0.004834
v 0.865425 1.535932 -0.024861
v 0.865425 1.668256 -0.024861
v 0.965109 1.535932 0.144373
v 0.965109 1.668256 0.144373
v 0.841292 1.535932 0.124347
v 0.841292 1.668256 0.124347
vt 0.375000 0.000000
vt 0.375000 0.250000
vt 0.625000 0.250000
vt 0.625000 0.000000
vt 0.375000 0.500000
vt 0.625000 0.500000
vt 0.375000 0.750000
vt 0.625000 0.750000
vt 0.375000 1.000000
vt 0.625000 1.000000
vt 0.125000 0.500000
vt 0.125000 0.750000
vt 0.875000 0.750000
vt 0.875000 0.500000
vt 0.375000 0.000000
vt 0.625000 0.000000
vt 0.625000 0.250000
vt 0.375000 0.250000
vt 0.625000 0.500000
vt 0.375000 0.500000
vt 0.625000 0.750000
vt 0.375000 0.750000
vt 0.625000 1.000000
vt 0.375000 1.000000
vt 0.125000 0.500000
vt 0.125000 0.750000
vt 0.875000 0.500000
vt 0.875000 0.750000
vt 0.375000 0.000000
vt 0.625000 0.000000
vt 0.625000 0.250000
vt 0.375000 0.250000
vt 0.625000 0.500000
vt 0.375000 0.500000
vt 0.625000 0.750000
vt 0.375000 0.750000
vt 0.625000 1.000000
vt 0.375000 1.000000
vt 0.125000 0.500000
vt 0.125000 0.750000
vt 0.875000 0.500000
vt 0.875000 0.750000
vt 0.375000 0.000000
vt 0.625000 0.000000
vt 0.625000 0.250000
vt 0.375000 0.250000
vt 0.625000 0.500000
vt 0.375000 0.500000
vt 0.625000 0.750000
vt 0.375000 0.750000
vt 0.625000 1.000000
vt 0.375000 1.000000
vt 0.125000 0.500000
vt 0.125000 0.750000
vt 0.875000 0.500000
vt 0.875000 0.750000
vt 0.375000 0.000000
vt 0.625000 0.000000
vt 0.625000 0.250000
vt 0.375000 0.250000
vt 0.625000 0.500000
vt 0.375000 0.500000
vt 0.625000 0.750000
vt 0.375000 0.750000
vt 0.625000 1.000000
vt 0.375000 1.000000
vt 0.125000 0.500000
vt 0.125000 0.750000
vt 0.875000 0.500000
vt 0.875000 0.750000
vt 0.375000 0.000000
vt 0.625000 0.000000
vt 0.625000 0.250000
vt 0.375000 0.250000
vt 0.625000 0.500000
vt 0.375000 0.500000
vt 0.625000 0.750000
vt 0.375000 0.750000
vt 0.625000 1.000000
vt 0.375000 1.000000
vt 0.125000 0.500000
vt 0.125000 0.750000
vt 0.875000 0.500000
vt 0.875000 0.750000
vt 0.375000 0.000000
vt 0.625000 0.000000
vt 0.625000 0.250000
vt 0.375000 0.250000
vt 0.625000 0.500000
vt 0.375000 0.500000
vt 0.625000 0.750000
vt 0.375000 0.750000
vt 0.625000 1.000000
vt 0.375000 1.000000
vt 0.125000 0.500000
vt 0.125000 0.750000
vt 0.875000 0.500000
vt 0.875000 0.750000
vt 0.375000 0.000000
vt 0.625000 0.000000
vt 0.625000 0.250000
vt 0.375000 0.250000
vt 0.625000 0.500000
vt 0.375000 0.500000
vt 0.625000 0.750000
vt 0.375000 0.750000
vt 0.625000 1.000000
vt 0.375000 1.000000
vt 0.125000 0.500000
vt 0.125000 0.750000
vt 0.875000 0.500000
vt 0.875000 0.750000
vt 0.375000 0.000000
vt 0.375000 0.250000
vt 0.625000 0.250000
vt 0.625000 0.000000
vt 0.375000 0.500000
vt 0.625000 0.500000
vt 0.375000 0.750000
vt 0.625000 0.750000
vt 0.375000 1.000000
vt 0.625000 1.000000
vt 0.125000 0.500000
vt 0.125000 0.750000
vt 0.875000 0.750000
vt 0.875000 0.500000
vt 0.375000 0.000000
vt 0.625000 0.000000
vt 0.625000 0.250000
vt 0.375000 0.250000
vt 0.625000 0.500000
vt 0.375000 0.500000
vt 0.625000 0.750000
vt 0.375000 0.750000
vt 0.625000 1.000000
vt 0.375000 1.000000
vt 0.125000 0.500000
vt 0.125000 0.750000
vt 0.875000 0.500000
vt 0.875000 0.750000
vt 0.375000 0.000000
vt 0.625000 0.000000
vt 0.625000 0.250000
vt 0.375000 0.250000
vt 0.625000 0.500000
vt 0.375000 0.500000
vt 0.625000 0.750000
vt 0.375000 0.750000
vt 0.625000 1.000000
vt 0.375000 1.000000
vt 0.125000 0.500000
vt 0.125000 0.750000
vt 0.875000 0.500000
vt 0.875000 0.750000
vt 0.375000 0.000000
vt 0.625000 0.000000
vt 0.625000 0.250000
vt 0.375000 0.250000
vt 0.625000 0.500000
vt 0.375000 0.500000
vt 0.625000 0.750000
vt 0.375000 0.750000
vt 0.625000 1.000000
vt 0.375000 1.000000
vt 0.125000 0.500000
vt 0.125000 0.750000
vt 0.875000 0.500000
vt 0.875000 0.750000
vt 0.375000 0.000000
vt 0.375000 0.250000
vt 0.625000 0.250000
vt 0.625000 0.000000
vt 0.375000 0.500000
vt 0.625000 0.500000
vt 0.375000 0.750000
vt 0.625000 0.750000
vt 0.375000 1.000000
vt 0.625000 1.000000
vt 0.125000 0.500000
vt 0.125000 0.750000
vt 0.875000 0.750000
vt 0.875000 0.500000
vt 0.375000 0.000000
vt 0.375000 0.250000
vt 0.625000 0.250000
vt 0.625000 0.000000
vt 0.375000 0.500000
vt 0.625000 0.500000
vt 0.375000 0.750000
vt 0.625000 0.750000
vt 0.375000 1.000000
vt 0.625000 1.000000
vt 0.125000 0.500000
vt 0.125000 0.750000
vt 0.875000 0.750000
vt 0.875000 0.500000
vt 0.375000 0.000000
vt 0.375000 0.250000
vt 0.625000 0.250000
vt 0.625000 0.000000
vt 0.375000 0.500000
vt 0.625000 0.500000
vt 0.375000 0.750000
vt 0.625000 0.750000
vt 0.375000 1.000000
vt 0.625000 1.000000
vt 0.125000 0.500000
vt 0.125000 0.750000
vt 0.875000 0.750000
vt 0.875000 0.500000
vt 0.375000 0.000000
vt 0.375000 0.250000
vt 0.625000 0.250000
vt 0.625000 0.000000
vt 0.375000 0.500000
vt 0.625000 0.500000
vt 0.375000 0.750000
vt 0.625000 0.750000
vt 0.375000 1.000000
vt 0.625000 1.000000
vt 0.125000 0.500000
vt 0.125000 0.750000
vt 0.875000 0.750000
vt 0.875000 0.500000
vt 0.375000 0.000000
vt 0.375000 0.250000
vt 0.625000 0.250000
vt 0.625000 0.000000
vt 0.375000 0.500000
vt 0.625000 0.500000
vt 0.375000 0.750000
vt 0.625000 0.750000
vt 0.375000 1.000000
vt 0.625000 1.000000
vt 0.125000 0.500000
vt 0.125000 0.750000
vt 0.875000 0.750000
vt 0.875000 0.500000
vt 0.375000 0.000000
vt 0.375000 0.250000
vt 0.625000 0.250000
vt 0.625000 0.000000
vt 0.375000 0.500000
vt 0.625000 0.500000
vt 0.375000 0.750000
vt 0.625000 0.750000
vt 0.375000 1.000000
vt 0.625000 1.000000
vt 0.125000 0.500000
vt 0.125000 0.750000
vt 0.875000 0.750000
vt 0.875000 0.500000
vn 1.0000 0.0000 0.0000
vn 0.0000 0.0000 -1.0000
vn -1.0000 0.0000 0.0000
vn 0.0000 0.0000 1.0000
vn 0.0000 -1.0000 0.0000
vn 0.0000 1.0000 0.0000
vn -0.9991 0.0000 -0.0431
vn 0.0431 0.0000 -0.9991
vn 0.9991 0.0000 0.0431
vn -0.0431 0.0000 0.9991
vn -0.9991 0.0018 -0.0431
vn 0.0431 0.0428 -0.9982
vn 0.9991 -0.0018 0.0431
vn -0.0431 -0.0428 0.9982
vn 0.0000 -0.9991 -0.0428
vn -0.0000 0.9991 0.0428
vn -0.9991 -0.0044 -0.0429
vn 0.0431 -0.1021 -0.9938
vn 0.9991 0.0044 0.0429
vn -0.0431 0.1021 0.9938
vn -0.0000 -0.9948 0.1022
vn 0.0000 0.9948 -0.1022
vn 0.0164 0.0000 -0.9999
vn 0.9998 0.0000 0.0188
vn -0.0164 0.0000 0.9999
vn -0.9998 0.0000 -0.0188
vn -0.1874 0.0000 -0.9823
vn 0.9785 0.0000 -0.2062
vn 0.1874 0.0000 0.9823
vn -0.9785 0.0000 0.2062
vn -0.1597 0.0000 -0.9872
vn 0.9872 0.0000 -0.1597
vn 0.1597 0.0000 0.9872
vn -0.9872 0.0000 0.1597
vn 0.9991 0.0000 -0.0431
vn -0.0431 0.0000 -0.9991
vn -0.9991 0.0000 0.0431
vn 0.0431 0.0000 0.9991
vn 0.9991 0.0018 -0.0431
vn -0.0431 0.0428 -0.9982
vn -0.9991 -0.0018 0.0431
vn 0.0431 -0.0428 0.9982
vn 0.9991 -0.0044 -0.0429
vn -0.0431 -0.1021 -0.9938
vn -0.9991 0.0044 0.0429
vn 0.0431 0.1021 0.9938
vn -0.0164 0.0000 -0.9999
vn -0.9998 0.0000 0.0188
vn 0.0164 0.0000 0.9999
vn 0.9998 0.0000 -0.0188
vn 0.1874 0.0000 -0.9823
vn -0.9785 0.0000 -0.2062
vn -0.1874 0.0000 0.9823
vn 0.9785 0.0000 0.2062
vn 0.1597 0.0000 -0.9872
vn -0.9872 0.0000 -0.1597
vn -0.1597 0.0000 0.9872
vn 0.9872 0.0000 0.1597
usemtl None
s off
f 1/1/1 3/2/1 4/3/1 2/4/1
f 3/2/2 7/5/2 8/6/2 4/3/2
f 7/5/3 5/7/3 6/8/3 8/6/3
f 5/7/4 1/9/4 2/10/4 6/8/4
f 3/11/5 1/12/5 5/7/5 7/5/5
f 8/6/6 6/8/6 2/13/6 4/14/6
f 9/15/7 10/16/7 12/17/7 11/18/7
f 11/18/8 12/17/8 16/19/8 15/20/8
f 15/20/9 16/19/9 14/21/9 13/22/9
f 13/22/10 14/21/10 10/23/10 9/24/10
f 11/25/5 15/20/5 13/22/5 9/26/5
f 16/19/6 12/27/6 10/28/6 14/21/6
f 17/29/11 18/30/11 20/31/11 19/32/11
f 19/32/12 20/31/12 24/33/12 23/34/12
f 23/34/13 24/33/13 22/35/13 21/36/13
f 21/36/14 22/35/14 18/37/14 17/38/14
f 19/39/15 23/34/15 21/36/15 17/40/15
f 24/33/16 20/41/16 18/42/16 22/35/16
f 25/43/17 26/44/17 28/45/17 27/46/17
f 27/46/18 28/45/18 32/47/18 31/48/18
f 31/48/19 32/47/19 30/49/19 29/50/19
f 29/50/20 30/49/20 26/51/20 25/52/20
f 27/53/21 31/48/21 29/50/21 25/54/21
f 32/47/22 28/55/22 26/56/22 30/49/22
f 33/57/3 34/58/3 36/59/3 35/60/3
f 35/60/2 36/59/2 40/61/2 39/62/2
f 39/62/1 40/61/1 38/63/1 37/64/1
f 37/64/4 38/63/4 34/65/4 33/66/4
f 35/67/5 39/62/5 37/64/5 33/68/5
f 40/61/6 36/69/6 34/70/6 38/63/6
f 41/71/3 42/72/3 44/73/3 43/74/3
f 43/74/2 44/73/2 48/75/2 47/76/2
f 47/76/1 48/75/1 46/77/1 45/78/1
f 45/78/4 46/77/4 42/79/4 41/80/4
f 43/81/5 47/76/5 45/78/5 41/82/5
f 48/75/6 44/83/6 42/84/6 46/77/6
f 49/85/3 50/86/3 52/87/3 51/88/3
f 51/88/2 52/87/2 56/89/2 55/90/2
f 55/90/1 56/89/1 54/91/1 53/92/1
f 53/92/4 54/91/4 50/93/4 49/94/4
f 51/95/5 55/90/5 53/92/5 49/96/5
f 56/89/6 52/97/6 50/98/6 54/91/6
f 57/99/3 58/100/3 60/101/3 59/102/3
f 59/102/2 60/101/2 64/103/2 63/104/2
f 63/104/1 64/103/1 62/105/1 61/106/1
f 61/106/4 62/105/4 58/107/4 57/108/4
f 59/109/5 63/104/5 61/106/5 57/110/5
f 64/103/6 60/111/6 58/112/6 62/105/6
f 65/113/1 67/114/1 68/115/1 66/116/1
f 67/114/2 71/117/2 72/118/2 68/115/2
f 71/117/3 69/119/3 70/120/3 72/118/3
f 69/119/4 65/121/4 66/122/4 70/120/4
f 67/123/5 65/124/5 69/119/5 71/117/5
f 72/118/6 70/120/6 66/125/6 68/126/6
f 73/127/23 74/128/23 76/129/23 75/130/23
f 75/130/24 76/129/24 80/131/24 79/132/24
f 79/132/25 80/131/25 78/133/25 77/134/25
f 77/134/26 78/133/26 74/135/26 73/136/26
f 75/137/5 79/132/5 77/134/5 73/138/5
f 80/131/6 76/139/6 74/140/6 78/133/6
f 81/141/27 82/142/27 84/143/27 83/144/27
f 83/144/28 84/143/28 88/145/28 87/146/28
f 87/146/29 88/145/29 86/147/29 85/148/29
f 85/148/30 86/147/30 82/149/30 81/150/30
f 83/151/5 87/146/5 85/148/5 81/152/5
f 88/145/6 84/153/6 82/154/6 86/147/6
f 89/155/31 90/156/31 92/157/31 91/158/31
f 91/158/32 92/157/32 96/159/32 95/160/32
f 95/160/33 96/159/33 94/161/33 93/162/33
f 93/162/34 94/161/34 90/163/34 89/164/34
f 91/165/5 95/160/5 93/162/5 89/166/5
f 96/159/6 92/167/6 90/168/6 94/161/6
f 97/169/35 99/170/35 100/171/35 98/172/35
f 99/170/36 103/173/36 104/174/36 100/171/36
f 103/173/37 101/175/37 102/176/37 104/174/37
f 101/175/38 97/177/38 98/178/38 102/176/38
f 99/179/5 97/180/5 101/175/5 103/173/5
f 104/174/6 102/176/6 98/181/6 100/182/6
f 105/183/39 107/184/39 108/185/39 106/186/39
f 107/184/40 111/187/40 112/188/40 108/185/40
f 111/187/41 109/189/41 110/190/41 112/188/41
f 109/189/42 105/191/42 106/192/42 110/190/42
f 107/193/15 105/194/15 109/189/15 111/187/15
f 112/188/16 110/190/16 106/195/16 108/196/16
f 113/197/43 115/198/43 116/199/43 114/200/43
f 115/198/44 119/201/44 120/202/44 116/199/44
f 119/201/45 117/203/45 118/204/45 120/202/45
f 117/203/46 113/205/46 114/206/46 118/204/46
f 115/207/21 113/208/21 117/203/21 119/201/21
f 120/202/22 118/204/22 114/209/22 116/210/22
f 121/211/47 123/212/47 124/213/47 122/214/47
f 123/212/48 127/215/48 128/216/48 124/213/48
f 127/215/49 125/217/49 126/218/49 128/216/49
f 125/217/50 121/219/50 122/220/50 126/218/50
f 123/221/5 121/222/5 125/217/5 127/215/5
f 128/216/6 126/218/6 122/223/6 124/224/6
f 129/225/51 131/226/51 132/227/51 130/228/51
f 131/226/52 135/229/52 136/230/52 132/227/52
f 135/229/53 133/231/53 134/232/53 136/230/53
f 133/231/54 129/233/54 130/234/54 134/232/54
f 131/235/5 129/236/5 133/231/5 135/229/5
f 136/230/6 134/232/6 130/237/6 132/238/6
f 137/239/55 139/240/55 140/241/55 138/242/55
f 139/240/56 143/243/56 144/244/56 140/241/56
f 143/243/57 141/245/57 142/246/57 144/244/57
f 141/245/58 137/247/58 138/248/58 142/246/58
f 139/249/5 137/250/5 141/245/5 143/243/5
f 144/244/6 142/246/6 138/251/6 140/252/6
