# Blender v2.80 (sub 75) OBJ File: ''
# www.blender.org
mtllib wobble3.mtl
o Cube.001
v 0.604833 0.697063 -0.604833
v -0.604833 0.697063 -0.604833
v -0.604833 0.697063 0.604833
v 0.604833 0.697063 0.604833
v 1.000000 -0.323690 1.000000
v 1.000000 0.327220 1.000000
v -1.000000 0.327220 1.000000
v -1.000000 -0.323690 1.000000
v -1.000000 0.327220 -1.000000
v -1.000000 -0.323689 -1.000000
v -0.604833 -0.697063 -0.604833
v 0.604833 -0.697063 -0.604833
v 0.604833 -0.697063 0.604833
v -0.604833 -0.697063 0.604833
v 1.000000 -0.323689 -1.000000
v 1.000000 0.327220 -1.000000
vt 0.424396 0.049396
vt 0.575604 0.049396
vt 0.575604 0.200604
vt 0.424396 0.200604
vt 0.375000 0.250000
vt 0.625000 0.250000
vt 0.625000 0.500000
vt 0.375000 0.500000
vt 0.625000 0.750000
vt 0.375000 0.750000
vt 0.424396 0.799396
vt 0.575604 0.799396
vt 0.575604 0.950604
vt 0.424396 0.950604
vt 0.125000 0.500000
vt 0.375000 0.500000
vt 0.375000 0.750000
vt 0.125000 0.750000
vt 0.625000 0.500000
vt 0.875000 0.500000
vt 0.875000 0.750000
vt 0.625000 0.750000
vt 0.375000 1.000000
vt 0.625000 0.250000
vt 0.375000 0.250000
vt 0.375000 0.000000
vt 0.625000 1.000000
vt 0.625000 0.000000
vn 0.0000 1.0000 0.0000
vn 0.0000 -0.0000 1.0000
vn -1.0000 -0.0000 0.0000
vn 0.0000 -1.0000 -0.0000
vn 1.0000 0.0000 0.0000
vn 0.0000 0.0000 -1.0000
vn -0.6868 -0.7269 -0.0000
vn 0.0000 -0.7269 -0.6868
vn 0.0000 0.7301 0.6833
vn 0.6833 0.7301 0.0000
vn 0.0000 -0.7269 0.6868
vn -0.6833 0.7301 0.0000
vn 0.0000 0.7301 -0.6833
vn 0.6868 -0.7269 -0.0000
usemtl Material.001
s 1
f 1/1/1 2/2/1 3/3/1 4/4/1
f 5/5/2 6/6/2 7/7/2 8/8/2
f 8/8/3 7/7/3 9/9/3 10/10/3
f 11/11/4 12/12/4 13/13/4 14/14/4
f 15/15/5 16/16/5 6/17/5 5/18/5
f 10/19/6 9/20/6 16/21/6 15/22/6
f 11/11/7 14/14/7 8/23/7 10/10/7
f 12/12/8 11/11/8 10/10/8 15/22/8
f 4/4/9 3/3/9 7/24/9 6/25/9
f 1/1/10 4/4/10 6/25/10 16/26/10
f 14/14/11 13/13/11 5/27/11 8/23/11
f 3/3/12 2/2/12 9/28/12 7/24/12
f 2/2/13 1/1/13 16/26/13 9/28/13
f 13/13/14 12/12/14 15/22/14 5/27/14
