# Blender v2.80 (sub 75) OBJ File: 'WeaponModels.blend'
# www.blender.org
mtllib Buckler.mtl
o Buckler_Circle.008
v -0.048282 0.408180 -0.427401
v -0.040317 0.109990 -0.303843
v -0.037018 -0.013524 -0.005546
v -0.040317 0.109990 0.292750
v -0.048282 0.408180 0.416308
v -0.056246 0.706370 0.292750
v -0.059545 0.829884 -0.005546
v -0.056246 0.706370 -0.303843
v -0.200163 0.408180 -0.005546
v -0.052598 0.135681 -0.278142
v -0.059876 0.408180 -0.391055
v -0.049583 0.022809 -0.005546
v -0.052598 0.135681 0.267050
v -0.059876 0.408180 0.379963
v -0.067154 0.680679 0.267050
v -0.070169 0.793552 -0.005546
v -0.067154 0.680679 -0.278142
v -0.086956 0.228038 -0.185752
v -0.091767 0.408180 -0.260396
v -0.084963 0.153421 -0.005546
v -0.086956 0.228038 0.174660
v -0.091767 0.408180 0.249303
v -0.096579 0.588322 0.174660
v -0.098572 0.662939 -0.005546
v -0.096579 0.588322 -0.185752
v -0.105996 0.266235 -0.147542
v -0.109787 0.408180 -0.206359
v -0.104425 0.207439 -0.005546
v -0.105996 0.266235 0.136450
v -0.109787 0.408180 0.195266
v -0.113578 0.550126 0.136450
v -0.115148 0.608921 -0.005546
v -0.113578 0.550126 -0.147542
v -0.156462 0.304431 -0.109332
v -0.159233 0.408180 -0.152322
v -0.155314 0.261456 -0.005546
v -0.156462 0.304431 0.098240
v -0.159233 0.408180 0.141230
v -0.162004 0.511929 0.098240
v -0.163152 0.554904 -0.005546
v -0.162004 0.511929 -0.109332
v -0.054799 0.129163 -0.284662
v -0.050843 0.118126 -0.295704
v -0.058584 0.408180 -0.415898
v -0.062252 0.408180 -0.400281
v -0.051712 0.013593 -0.005546
v -0.047637 -0.002015 -0.005546
v -0.054799 0.129163 0.273570
v -0.050843 0.118126 0.284611
v -0.062252 0.408180 0.389188
v -0.058584 0.408180 0.404805
v -0.069706 0.687204 0.273577
v -0.066324 0.698244 0.284621
v -0.072793 0.802781 -0.005546
v -0.069531 0.818395 -0.005546
v -0.069706 0.687204 -0.284669
v -0.066324 0.698244 -0.295713
v -0.185171 0.347395 -0.066353
v -0.186795 0.408180 -0.091540
v -0.184499 0.322217 -0.005546
v -0.185171 0.347395 0.055260
v -0.186795 0.408180 0.080447
v -0.188418 0.468965 0.055260
v -0.189091 0.494143 -0.005546
v -0.188418 0.468965 -0.066353
vt 0.000000 0.000000
vt 0.000000 0.000000
vt 0.000000 0.000000
vt 0.000000 0.000000
vt 0.000000 0.000000
vt 0.000000 0.000000
vt 0.000000 0.000000
vt 0.000000 0.000000
vt 0.000000 0.000000
vt 0.000000 0.000000
vt 0.000000 0.000000
vt 0.000000 0.000000
vt 0.000000 0.000000
vt 0.000000 0.000000
vt 0.000000 0.000000
vt 0.000000 0.000000
vt 0.000000 0.000000
vt 0.000000 0.000000
vt 0.000000 0.000000
vt 0.000000 0.000000
vt 0.000000 0.000000
vt 0.000000 0.000000
vt 0.000000 0.000000
vt 0.000000 0.000000
vt 0.000000 0.000000
vt 0.000000 0.000000
vt 0.000000 0.000000
vt 0.000000 0.000000
vt 0.000000 0.000000
vt 0.000000 0.000000
vt 0.000000 0.000000
vt 0.000000 0.000000
vt 0.000000 0.000000
vt 0.000000 0.000000
vt 0.000000 0.000000
vt 0.000000 0.000000
vt 0.000000 0.000000
vt 0.000000 0.000000
vt 0.000000 0.000000
vt 0.000000 0.000000
vt 0.000000 0.000000
vt 0.000000 0.000000
vt 0.000000 0.000000
vt 0.000000 0.000000
vt 0.000000 0.000000
vt 0.000000 0.000000
vt 0.000000 0.000000
vt 0.000000 0.000000
vt 0.000000 0.000000
vt 0.000000 0.000000
vt 0.000000 0.000000
vt 0.000000 0.000000
vt 0.000000 0.000000
vt 0.000000 0.000000
vt 0.000000 0.000000
vt 0.000000 0.000000
vt 0.000000 0.000000
vt 0.000000 0.000000
vt 0.000000 0.000000
vt 0.000000 0.000000
vt 0.000000 0.000000
vt 0.000000 0.000000
vt 0.000000 0.000000
vt 0.000000 0.000000
vt 0.000000 0.000000
vn -0.7216 0.2485 -0.6462
vn -0.9691 0.2238 0.1034
vn -0.9655 0.0772 -0.2487
vn -0.9604 -0.1281 -0.2474
vn -0.7268 0.6317 0.2696
vn -0.9568 -0.2721 -0.1021
vn -0.9604 -0.1281 0.2474
vn -0.9641 -0.1233 -0.2353
vn -0.9607 -0.2602 -0.0971
vn -0.9607 -0.2602 0.0971
vn -0.9641 -0.1233 0.2353
vn -0.9690 0.0721 0.2365
vn -0.9724 0.2115 0.0983
vn -0.9724 0.2115 -0.0983
vn -0.9690 0.0721 -0.2365
vn -0.9372 -0.1545 -0.3125
vn -0.9330 -0.3361 -0.1289
vn -0.9330 -0.3361 0.1289
vn -0.9372 -0.1545 0.3125
vn -0.9434 0.1052 0.3146
vn -0.9478 0.2908 0.1309
vn -0.9478 0.2908 -0.1309
vn -0.9434 0.1052 -0.3146
vn 0.9996 0.0267 -0.0000
vn -0.7140 0.2517 -0.6534
vn -0.7192 0.6391 -0.2726
vn -0.7192 0.6391 0.2726
vn -0.7140 0.2517 0.6534
vn -0.7067 -0.2868 0.6467
vn -0.7017 -0.6610 0.2659
vn -0.7017 -0.6610 -0.2659
vn -0.7067 -0.2868 -0.6467
vn -0.9691 0.2238 -0.1034
vn -0.7268 0.6317 -0.2696
vn -0.7142 -0.2841 0.6396
vn -0.7091 -0.6542 0.2630
vn -0.7142 -0.2841 -0.6396
vn -0.7091 -0.6542 -0.2630
vn -0.7216 0.2485 0.6462
vn -0.9568 -0.2721 0.1021
vn -0.8938 -0.1918 -0.4053
vn -0.8888 -0.4269 -0.1669
vn -0.8888 -0.4269 0.1669
vn -0.8938 -0.1918 0.4053
vn -0.9011 0.1452 0.4086
vn -0.9063 0.3869 0.1702
vn -0.9063 0.3869 -0.1702
vn -0.9011 0.1452 -0.4086
vn -0.9711 0.0688 -0.2286
vn -0.9744 0.2036 -0.0951
vn -0.9745 0.2034 0.0950
vn -0.9712 0.0686 0.2282
vn -0.9666 -0.1197 0.2267
vn -0.9633 -0.2515 0.0935
vn -0.9633 -0.2517 -0.0936
vn -0.9665 -0.1199 -0.2270
vn -0.9655 0.0773 0.2487
vn -0.9842 -0.0897 -0.1530
vn -0.9818 -0.1789 -0.0632
vn -0.9818 -0.1789 0.0632
vn -0.9842 -0.0897 0.1530
vn -0.9874 0.0372 0.1535
vn -0.9898 0.1275 0.0637
vn -0.9898 0.1275 -0.0637
vn -0.9874 0.0372 -0.1535
vn -0.9655 0.0773 -0.2487
vn -0.9373 -0.1545 -0.3125
vn -0.9712 0.0686 -0.2282
vn -0.9745 0.2034 -0.0950
vn -0.9744 0.2036 0.0951
vn -0.9711 0.0688 0.2286
vn -0.9665 -0.1199 0.2270
vn -0.9633 -0.2517 0.0936
vn -0.9633 -0.2515 -0.0935
vn -0.9666 -0.1197 -0.2267
usemtl None
s off
f 44/1/1 8/2/1 1/3/1
f 10/4/2 46/5/2 12/6/2
f 14/7/3 48/8/3 50/9/3
f 15/10/4 50/9/4 52/11/4
f 53/12/5 7/13/5 55/14/5
f 52/11/6 16/15/6 15/10/6
f 17/16/7 45/17/7 11/18/7
f 18/19/8 11/18/8 10/4/8
f 20/20/9 10/4/9 12/6/9
f 20/20/10 13/21/10 21/22/10
f 21/22/11 14/7/11 22/23/11
f 22/23/12 15/10/12 23/24/12
f 23/24/13 16/15/13 24/25/13
f 25/26/14 16/15/14 17/16/14
f 19/27/15 17/16/15 11/18/15
f 26/28/16 19/27/16 18/19/16
f 28/29/17 18/19/17 20/20/17
f 28/29/18 21/22/18 29/30/18
f 29/30/19 22/23/19 30/31/19
f 30/31/20 23/24/20 31/32/20
f 31/32/21 24/25/21 32/33/21
f 33/34/22 24/25/22 25/26/22
f 27/35/23 25/26/23 19/27/23
f 3/36/24 1/3/24 7/13/24
f 35/37/25 33/34/25 27/35/25
f 41/38/26 32/33/26 33/34/26
f 39/39/27 32/33/27 40/40/27
f 38/41/28 31/32/28 39/39/28
f 37/42/29 30/31/29 38/41/29
f 36/43/30 29/30/30 37/42/30
f 36/43/31 26/28/31 28/29/31
f 34/44/32 27/35/32 26/28/32
f 13/21/33 46/5/33 48/8/33
f 57/45/34 7/13/34 8/2/34
f 49/46/35 5/47/35 51/48/35
f 47/49/36 4/50/36 49/46/36
f 43/51/37 1/3/37 2/52/37
f 47/49/38 2/52/38 3/36/38
f 51/48/39 6/53/39 53/12/39
f 16/15/40 56/54/40 17/16/40
f 58/55/41 35/37/41 34/44/41
f 60/56/42 34/44/42 36/43/42
f 60/56/43 37/42/43 61/57/43
f 61/57/44 38/41/44 62/58/44
f 62/58/45 39/39/45 63/59/45
f 63/59/46 40/40/46 64/60/46
f 65/61/47 40/40/47 41/38/47
f 59/62/48 41/38/48 35/37/48
f 57/45/49 45/17/49 56/54/49
f 55/14/50 56/54/50 54/63/50
f 55/14/51 52/11/51 53/12/51
f 53/12/52 50/9/52 51/48/52
f 51/48/53 48/8/53 49/46/53
f 49/46/54 46/5/54 47/49/54
f 43/51/55 46/5/55 42/64/55
f 44/1/56 42/64/56 45/17/56
f 11/18/57 42/64/57 10/4/57
f 9/65/58 59/62/58 58/55/58
f 9/65/59 58/55/59 60/56/59
f 9/65/60 60/56/60 61/57/60
f 9/65/61 61/57/61 62/58/61
f 9/65/62 62/58/62 63/59/62
f 9/65/63 63/59/63 64/60/63
f 9/65/64 64/60/64 65/61/64
f 9/65/65 65/61/65 59/62/65
f 44/1/1 57/45/1 8/2/1
f 10/4/2 42/64/2 46/5/2
f 14/7/66 13/21/66 48/8/66
f 15/10/4 14/7/4 50/9/4
f 53/12/5 6/53/5 7/13/5
f 52/11/6 54/63/6 16/15/6
f 17/16/7 56/54/7 45/17/7
f 18/19/8 19/27/8 11/18/8
f 20/20/9 18/19/9 10/4/9
f 20/20/10 12/6/10 13/21/10
f 21/22/11 13/21/11 14/7/11
f 22/23/12 14/7/12 15/10/12
f 23/24/13 15/10/13 16/15/13
f 25/26/14 24/25/14 16/15/14
f 19/27/15 25/26/15 17/16/15
f 26/28/67 27/35/67 19/27/67
f 28/29/17 26/28/17 18/19/17
f 28/29/18 20/20/18 21/22/18
f 29/30/19 21/22/19 22/23/19
f 30/31/20 22/23/20 23/24/20
f 31/32/21 23/24/21 24/25/21
f 33/34/22 32/33/22 24/25/22
f 27/35/23 33/34/23 25/26/23
f 3/36/24 2/52/24 1/3/24
f 1/3/24 8/2/24 7/13/24
f 7/13/24 6/53/24 3/36/24
f 6/53/24 5/47/24 3/36/24
f 5/47/24 4/50/24 3/36/24
f 35/37/25 41/38/25 33/34/25
f 41/38/26 40/40/26 32/33/26
f 39/39/27 31/32/27 32/33/27
f 38/41/28 30/31/28 31/32/28
f 37/42/29 29/30/29 30/31/29
f 36/43/30 28/29/30 29/30/30
f 36/43/31 34/44/31 26/28/31
f 34/44/32 35/37/32 27/35/32
f 13/21/33 12/6/33 46/5/33
f 57/45/34 55/14/34 7/13/34
f 49/46/35 4/50/35 5/47/35
f 47/49/36 3/36/36 4/50/36
f 43/51/37 44/1/37 1/3/37
f 47/49/38 43/51/38 2/52/38
f 51/48/39 5/47/39 6/53/39
f 16/15/40 54/63/40 56/54/40
f 58/55/41 59/62/41 35/37/41
f 60/56/42 58/55/42 34/44/42
f 60/56/43 36/43/43 37/42/43
f 61/57/44 37/42/44 38/41/44
f 62/58/45 38/41/45 39/39/45
f 63/59/46 39/39/46 40/40/46
f 65/61/47 64/60/47 40/40/47
f 59/62/48 65/61/48 41/38/48
f 57/45/68 44/1/68 45/17/68
f 55/14/69 57/45/69 56/54/69
f 55/14/70 54/63/70 52/11/70
f 53/12/71 52/11/71 50/9/71
f 51/48/72 50/9/72 48/8/72
f 49/46/73 48/8/73 46/5/73
f 43/51/74 47/49/74 46/5/74
f 44/1/75 43/51/75 42/64/75
f 11/18/57 45/17/57 42/64/57
