# Blender v2.80 (sub 75) OBJ File: 'Weapons.blend'
# www.blender.org
mtllib CircleShield.mtl
o Circle_Shield_Circle.002
v -0.192725 0.632035 0.148519
v -0.196724 0.781759 -0.001259
v -0.192725 0.632035 -0.151036
v -0.054301 0.187498 -0.445954
v -0.040819 0.632035 -0.658464
v -0.028412 0.167486 -0.465973
v -0.049383 0.003365 -0.001259
v -0.023272 -0.024936 -0.001259
v -0.028412 0.167486 0.463456
v -0.054301 0.187498 0.443436
v -0.040819 0.632035 0.655947
v -0.066174 0.632035 0.627635
v -0.053227 1.096583 0.463456
v -0.078047 1.076571 0.443436
v -0.058366 1.289006 -0.001259
v -0.082965 1.260704 -0.001259
v -0.078047 1.076571 -0.445954
v -0.053227 1.096583 -0.465973
v -0.066174 0.632035 -0.630153
v -0.118970 0.448209 -0.185150
v -0.058882 0.632035 -0.601841
v -0.047544 0.207510 -0.425935
v -0.116936 0.372066 -0.001259
v -0.042847 0.031666 -0.001259
v -0.047544 0.207510 0.423417
v -0.118970 0.448209 0.182632
v -0.058882 0.632035 0.599324
v -0.123880 0.632035 0.258802
v -0.070221 1.056559 0.423417
v -0.128790 0.815860 0.182632
v -0.074917 1.232403 -0.001259
v -0.130823 0.892003 -0.001259
v -0.128790 0.815860 -0.185150
v -0.070221 1.056559 -0.425935
v -0.123880 0.632035 -0.261320
v -0.138399 0.487187 -0.146158
v -0.136797 0.427189 -0.001259
v -0.138399 0.487187 0.143641
v -0.142268 0.632035 0.203660
v -0.146136 0.776883 0.143641
v -0.147739 0.836881 -0.001259
v -0.146136 0.776883 -0.146158
v -0.142268 0.632035 -0.206178
v -0.195553 0.737906 -0.107167
v -0.195553 0.737906 0.104650
v -0.189898 0.526164 0.104650
v -0.188726 0.482311 -0.001259
v -0.189898 0.526164 -0.107167
v -0.040819 0.632035 -0.001259
v -0.192725 0.632035 -0.001259
vt 0.015525 0.347444
vt 0.145708 0.502487
vt 0.000163 0.353322
vt 0.016332 0.152887
vt 0.001405 0.146644
vt 0.147673 0.000633
vt 0.154255 0.015723
vt 0.356232 0.000163
vt 0.350367 0.015496
vt 0.504673 0.147296
vt 0.489683 0.153877
vt 0.504673 0.357859
vt 0.489300 0.351408
vt 0.348635 0.490016
vt 0.354439 0.505310
vt 0.152542 0.487576
vt 0.636518 0.764310
vt 0.638135 0.952024
vt 0.504999 0.817635
vt 0.636619 0.683517
vt 0.505443 0.628973
vt 0.638896 0.495633
vt 0.693810 0.626472
vt 0.828089 0.495327
vt 0.774827 0.626587
vt 0.962345 0.629002
vt 0.832206 0.683820
vt 0.962345 0.818973
vt 0.832231 0.764860
vt 0.774721 0.821980
vt 0.827672 0.952933
vt 0.693672 0.821732
vt 0.658569 0.755457
vt 0.658479 0.692603
vt 0.703073 0.648345
vt 0.766029 0.648569
vt 0.810548 0.693059
vt 0.810455 0.755799
vt 0.765984 0.800104
vt 0.703058 0.800000
vt 0.752418 0.247582
vt 0.999837 0.350067
vt 0.854903 0.495001
vt 0.649934 0.495001
vt 0.062153 0.644490
vt 0.117900 0.675245
vt 0.047893 0.673392
vt 0.107215 0.644782
vt 0.168939 0.625707
vt 0.139638 0.568129
vt 0.138515 0.612838
vt 0.108044 0.535997
vt 0.168939 0.554579
vt 0.062953 0.535650
vt 0.118852 0.505635
vt 0.030313 0.567070
vt 0.049511 0.506420
vt 0.000163 0.623087
vt 0.001204 0.554757
vt 0.030500 0.612375
vt 0.344020 0.478656
vt 0.157279 0.476397
vt 0.477799 0.346581
vt 0.345699 0.026714
vt 0.158813 0.026857
vt 0.026654 0.342893
vt 0.027253 0.157454
vt 0.478336 0.158549
vt 0.084944 0.590178
vt 0.854903 0.000163
vt 0.999837 0.145097
vt 0.504999 0.145098
vt 0.649934 0.000163
vt 0.504999 0.350066
vn -0.7142 -0.2841 -0.6396
vn -0.7091 -0.6542 -0.2630
vn -0.7091 -0.6542 0.2630
vn -0.7142 -0.2841 0.6396
vn -0.7216 0.2485 0.6462
vn -0.7268 0.6317 0.2696
vn -0.7268 0.6317 -0.2696
vn -0.7216 0.2485 -0.6462
vn -0.9770 -0.1034 -0.1865
vn -0.9742 -0.2120 -0.0770
vn -0.9742 -0.2120 0.0770
vn -0.9770 -0.1034 0.1865
vn -0.9810 0.0514 0.1872
vn -0.9838 0.1616 0.0778
vn -0.9838 0.1616 -0.0778
vn -0.9810 0.0514 -0.1872
vn -0.9373 -0.1545 -0.3125
vn -0.9330 -0.3361 -0.1289
vn -0.9330 -0.3361 0.1289
vn -0.9372 -0.1545 0.3125
vn -0.9434 0.1052 0.3146
vn -0.9478 0.2909 0.1309
vn -0.9478 0.2908 -0.1309
vn -0.9434 0.1052 -0.3146
vn 0.9996 0.0267 -0.0000
vn -0.7140 0.2517 -0.6533
vn -0.7192 0.6391 -0.2726
vn -0.7192 0.6391 0.2726
vn -0.7140 0.2517 0.6534
vn -0.7067 -0.2868 0.6467
vn -0.7017 -0.6610 0.2659
vn -0.7017 -0.6610 -0.2659
vn -0.7067 -0.2869 -0.6467
vn -0.9604 -0.1281 0.2474
vn -0.9568 -0.2721 0.1021
vn -0.9655 0.0773 -0.2487
vn -0.9691 0.2238 -0.1034
vn -0.9691 0.2238 0.1034
vn -0.9655 0.0772 0.2487
vn -0.9604 -0.1281 -0.2474
vn -0.9568 -0.2721 -0.1021
vn -0.9996 -0.0267 -0.0000
vn -0.7142 -0.2841 -0.6397
vn -0.9372 -0.1545 -0.3125
vn -0.9478 0.2908 0.1309
vn -0.9478 0.2909 -0.1309
vn -0.7140 0.2517 -0.6534
vn -0.7068 -0.2868 -0.6467
vn -0.9655 0.0773 0.2487
vn -0.9604 -0.1282 -0.2474
usemtl None.001
s off
f 4/1/1 5/2/1 6/3/1
f 7/4/2 6/3/2 8/5/2
f 7/4/3 9/6/3 10/7/3
f 10/7/4 11/8/4 12/9/4
f 12/9/5 13/10/5 14/11/5
f 14/11/6 15/12/6 16/13/6
f 17/14/7 15/12/7 18/15/7
f 19/16/8 18/15/8 5/2/8
f 20/17/9 21/18/9 22/19/9
f 23/20/10 22/19/10 24/21/10
f 23/20/11 25/22/11 26/23/11
f 26/23/12 27/24/12 28/25/12
f 28/25/13 29/26/13 30/27/13
f 30/27/14 31/28/14 32/29/14
f 33/30/15 31/28/15 34/31/15
f 35/32/16 34/31/16 21/18/16
f 36/33/17 35/32/17 20/17/17
f 37/34/18 20/17/18 23/20/18
f 37/34/19 26/23/19 38/35/19
f 38/35/20 28/25/20 39/36/20
f 39/36/21 30/27/21 40/37/21
f 40/37/22 32/29/22 41/38/22
f 42/39/23 32/29/23 33/30/23
f 43/40/24 33/30/24 35/32/24
f 49/41/25 5/42/25 18/43/25 15/44/25
f 3/45/26 42/46/26 43/47/26
f 44/48/27 41/49/27 42/46/27
f 45/50/28 41/49/28 2/51/28
f 1/52/29 40/53/29 45/50/29
f 46/54/30 39/55/30 1/52/30
f 47/56/31 38/57/31 46/54/31
f 47/56/32 36/58/32 37/59/32
f 48/60/33 43/47/33 36/58/33
f 34/61/34 19/16/34 21/62/34
f 31/63/35 17/14/35 34/61/35
f 27/64/36 10/7/36 12/9/36
f 25/65/37 7/4/37 10/7/37
f 22/66/38 7/4/38 24/67/38
f 21/62/39 4/1/39 22/66/39
f 29/68/40 12/9/40 14/11/40
f 14/11/41 31/63/41 29/68/41
f 50/69/42 1/52/42 45/50/42 2/51/42
f 48/60/42 47/56/42 50/69/42 3/45/42
f 4/1/43 19/16/43 5/2/43
f 7/4/2 4/1/2 6/3/2
f 7/4/3 8/5/3 9/6/3
f 10/7/4 9/6/4 11/8/4
f 12/9/5 11/8/5 13/10/5
f 14/11/6 13/10/6 15/12/6
f 17/14/7 16/13/7 15/12/7
f 19/16/8 17/14/8 18/15/8
f 20/17/9 35/32/9 21/18/9
f 23/20/10 20/17/10 22/19/10
f 23/20/11 24/21/11 25/22/11
f 26/23/12 25/22/12 27/24/12
f 28/25/13 27/24/13 29/26/13
f 30/27/14 29/26/14 31/28/14
f 33/30/15 32/29/15 31/28/15
f 35/32/16 33/30/16 34/31/16
f 36/33/44 43/40/44 35/32/44
f 37/34/18 36/33/18 20/17/18
f 37/34/19 23/20/19 26/23/19
f 38/35/20 26/23/20 28/25/20
f 39/36/21 28/25/21 30/27/21
f 40/37/45 30/27/45 32/29/45
f 42/39/46 41/38/46 32/29/46
f 43/40/24 42/39/24 33/30/24
f 47/56/42 46/54/42 1/52/42 50/69/42
f 8/70/25 6/71/25 5/42/25 49/41/25
f 11/72/25 9/73/25 8/70/25 49/41/25
f 3/45/42 50/69/42 2/51/42 44/48/42
f 13/74/25 11/72/25 49/41/25 15/44/25
f 3/45/47 44/48/47 42/46/47
f 44/48/27 2/51/27 41/49/27
f 45/50/28 40/53/28 41/49/28
f 1/52/29 39/55/29 40/53/29
f 46/54/30 38/57/30 39/55/30
f 47/56/31 37/59/31 38/57/31
f 47/56/32 48/60/32 36/58/32
f 48/60/48 3/45/48 43/47/48
f 34/61/34 17/14/34 19/16/34
f 31/63/35 16/13/35 17/14/35
f 27/64/36 25/65/36 10/7/36
f 25/65/37 24/67/37 7/4/37
f 22/66/38 4/1/38 7/4/38
f 21/62/49 19/16/49 4/1/49
f 29/68/50 27/64/50 12/9/50
f 14/11/41 16/13/41 31/63/41
