# Blender v2.80 (sub 75) OBJ File: ''
# www.blender.org
o Circle_Shield_Circle.002
v -0.088600 0.000000 0.149778
v -0.092599 0.149724 -0.000000
v -0.088600 0.000000 -0.149777
v 0.049824 -0.444537 -0.444695
v 0.063306 0.000000 -0.657205
v 0.075713 -0.464549 -0.464714
v 0.054742 -0.628670 -0.000000
v 0.080853 -0.656971 -0.000000
v 0.075713 -0.464549 0.464715
v 0.049824 -0.444537 0.444695
v 0.063306 0.000000 0.657206
v 0.037951 0.000000 0.628894
v 0.050898 0.464548 0.464715
v 0.026078 0.444536 0.444695
v 0.045759 0.656975 -0.000000
v 0.021160 0.628669 -0.000000
v 0.026078 0.444536 -0.444695
v 0.050898 0.464548 -0.464714
v 0.037951 0.000000 -0.628894
v -0.014845 -0.183826 -0.183891
v 0.045243 0.000000 -0.600582
v 0.056581 -0.424525 -0.424676
v -0.012811 -0.259969 -0.000000
v 0.061278 -0.600369 -0.000000
v 0.056581 -0.424525 0.424676
v -0.014845 -0.183826 0.183891
v 0.045243 0.000000 0.600583
v -0.019755 0.000000 0.260061
v 0.033904 0.424524 0.424676
v -0.024665 0.183825 0.183891
v 0.029208 0.600368 -0.000000
v -0.026698 0.259968 -0.000000
v -0.024665 0.183825 -0.183891
v 0.033904 0.424524 -0.424676
v -0.019755 0.000000 -0.260061
v -0.034274 -0.144848 -0.144899
v -0.032672 -0.204846 -0.000000
v -0.034274 -0.144848 0.144900
v -0.038143 0.000000 0.204919
v -0.042011 0.144848 0.144900
v -0.043614 0.204846 -0.000000
v -0.042011 0.144848 -0.144899
v -0.038143 0.000000 -0.204919
v -0.091428 0.105871 -0.105908
v -0.091428 0.105871 0.105909
v -0.085773 -0.105871 0.105909
v -0.084601 -0.149724 -0.000000
v -0.085773 -0.105871 -0.105908
vt 0.000000 0.000000
vt 0.000000 0.000000
vt 0.000000 0.000000
vt 0.000000 0.000000
vt 0.000000 0.000000
vt 0.000000 0.000000
vt 0.000000 0.000000
vt 0.000000 0.000000
vt 0.000000 0.000000
vt 0.000000 0.000000
vt 0.000000 0.000000
vt 0.000000 0.000000
vt 0.000000 0.000000
vt 0.000000 0.000000
vt 0.000000 0.000000
vt 0.000000 0.000000
vt 0.000000 0.000000
vt 0.000000 0.000000
vt 0.000000 0.000000
vt 0.000000 0.000000
vt 0.000000 0.000000
vt 0.000000 0.000000
vt 0.000000 0.000000
vt 0.000000 0.000000
vt 0.000000 0.000000
vt 0.000000 0.000000
vt 0.000000 0.000000
vt 0.000000 0.000000
vt 0.000000 0.000000
vt 0.000000 0.000000
vt 0.000000 0.000000
vt 0.000000 0.000000
vt 0.000000 0.000000
vt 0.000000 0.000000
vt 0.000000 0.000000
vt 0.000000 0.000000
vt 0.000000 0.000000
vt 0.000000 0.000000
vt 0.000000 0.000000
vt 0.000000 0.000000
vt 0.000000 0.000000
vt 0.000000 0.000000
vt 0.000000 0.000000
vt 0.000000 0.000000
vt 0.000000 0.000000
vt 0.000000 0.000000
vt 0.000000 0.000000
vt 0.000000 0.000000
vn -0.9996 -0.0267 -0.0000
vn -0.7142 -0.2841 -0.6396
vn -0.7142 -0.2841 -0.6397
vn -0.7091 -0.6542 -0.2630
vn -0.7091 -0.6542 0.2630
vn -0.7142 -0.2841 0.6396
vn -0.7216 0.2485 0.6462
vn -0.7268 0.6317 0.2696
vn -0.7269 0.6317 0.2696
vn -0.7268 0.6317 -0.2696
vn -0.7216 0.2485 -0.6462
vn -0.9770 -0.1034 -0.1865
vn -0.9742 -0.2120 -0.0770
vn -0.9742 -0.2120 0.0770
vn -0.9770 -0.1034 0.1865
vn -0.9810 0.0514 0.1872
vn -0.9838 0.1616 0.0778
vn -0.9838 0.1616 -0.0778
vn -0.9810 0.0514 -0.1872
vn -0.9373 -0.1545 -0.3125
vn -0.9372 -0.1545 -0.3125
vn -0.9330 -0.3361 -0.1289
vn -0.9330 -0.3361 0.1289
vn -0.9372 -0.1545 0.3125
vn -0.9434 0.1052 0.3146
vn -0.9478 0.2908 0.1309
vn -0.9478 0.2909 0.1309
vn -0.9478 0.2908 -0.1309
vn -0.9434 0.1052 -0.3146
vn 0.9996 0.0267 0.0000
vn -0.7140 0.2517 -0.6533
vn -0.7140 0.2517 -0.6534
vn -0.7192 0.6391 -0.2726
vn -0.7192 0.6391 0.2726
vn -0.7140 0.2517 0.6534
vn -0.7067 -0.2868 0.6467
vn -0.7017 -0.6610 0.2659
vn -0.7017 -0.6610 -0.2659
vn -0.7067 -0.2868 -0.6467
vn -0.7067 -0.2869 -0.6467
vn -0.9604 -0.1281 0.2474
vn -0.9568 -0.2721 0.1021
vn -0.9655 0.0773 -0.2487
vn -0.9691 0.2238 -0.1034
vn -0.9691 0.2238 0.1034
vn -0.9655 0.0773 0.2487
vn -0.9655 0.0772 0.2487
vn -0.9604 -0.1281 -0.2474
vn -0.9604 -0.1282 -0.2474
vn -0.9568 -0.2721 -0.1021
vn -0.7269 0.6317 -0.2696
vn -0.9478 0.2909 -0.1309
vn -0.7068 -0.2868 -0.6467
s 1
f 1/1/1 2/2/1 3/3/1
f 4/4/2 5/5/3 6/6/2
f 7/7/4 6/6/4 8/8/4
f 7/7/5 9/9/5 10/10/5
f 10/10/6 11/11/6 12/12/6
f 12/12/7 13/13/7 14/14/7
f 14/14/8 15/15/8 16/16/9
f 17/17/10 15/15/10 18/18/10
f 19/19/11 18/18/11 5/5/11
f 20/20/12 21/21/12 22/22/12
f 23/23/13 22/22/13 24/24/13
f 23/23/14 25/25/14 26/26/14
f 26/26/15 27/27/15 28/28/15
f 28/28/16 29/29/16 30/30/16
f 30/30/17 31/31/17 32/32/17
f 33/33/18 31/31/18 34/34/18
f 35/35/19 34/34/19 21/21/19
f 36/36/20 35/35/21 20/20/20
f 37/37/22 20/20/22 23/23/22
f 37/37/23 26/26/23 38/38/23
f 38/38/24 28/28/24 39/39/24
f 39/39/25 30/30/25 40/40/25
f 40/40/26 32/32/26 41/41/27
f 42/42/28 32/32/28 33/33/28
f 43/43/29 33/33/29 35/35/29
f 8/8/30 5/5/30 15/15/30
f 3/3/31 42/42/32 43/43/31
f 44/44/33 41/41/33 42/42/33
f 45/45/34 41/41/34 2/2/34
f 1/1/35 40/40/35 45/45/35
f 46/46/36 39/39/36 1/1/36
f 47/47/37 38/38/37 46/46/37
f 47/47/38 36/36/38 37/37/38
f 48/48/39 43/43/39 36/36/40
f 34/34/41 19/19/41 21/21/41
f 31/31/42 17/17/42 34/34/42
f 27/27/43 10/10/43 12/12/43
f 25/25/44 7/7/44 10/10/44
f 22/22/45 7/7/45 24/24/45
f 21/21/46 4/4/46 22/22/47
f 29/29/48 12/12/49 14/14/48
f 14/14/50 31/31/50 29/29/50
f 3/3/1 48/48/1 47/47/1
f 47/47/1 46/46/1 3/3/1
f 46/46/1 1/1/1 3/3/1
f 1/1/1 45/45/1 2/2/1
f 2/2/1 44/44/1 3/3/1
f 4/4/2 19/19/3 5/5/3
f 7/7/4 4/4/4 6/6/4
f 7/7/5 8/8/5 9/9/5
f 10/10/6 9/9/6 11/11/6
f 12/12/7 11/11/7 13/13/7
f 14/14/8 13/13/8 15/15/8
f 17/17/10 16/16/51 15/15/10
f 19/19/11 17/17/11 18/18/11
f 20/20/12 35/35/12 21/21/12
f 23/23/13 20/20/13 22/22/13
f 23/23/14 24/24/14 25/25/14
f 26/26/15 25/25/15 27/27/15
f 28/28/16 27/27/16 29/29/16
f 30/30/17 29/29/17 31/31/17
f 33/33/18 32/32/18 31/31/18
f 35/35/19 33/33/19 34/34/19
f 36/36/20 43/43/21 35/35/21
f 37/37/22 36/36/22 20/20/22
f 37/37/23 23/23/23 26/26/23
f 38/38/24 26/26/24 28/28/24
f 39/39/25 28/28/25 30/30/25
f 40/40/26 30/30/26 32/32/26
f 42/42/28 41/41/52 32/32/28
f 43/43/29 42/42/29 33/33/29
f 8/8/30 6/6/30 5/5/30
f 5/5/30 18/18/30 15/15/30
f 15/15/30 13/13/30 8/8/30
f 13/13/30 11/11/30 8/8/30
f 11/11/30 9/9/30 8/8/30
f 3/3/31 44/44/32 42/42/32
f 44/44/33 2/2/33 41/41/33
f 45/45/34 40/40/34 41/41/34
f 1/1/35 39/39/35 40/40/35
f 46/46/36 38/38/36 39/39/36
f 47/47/37 37/37/37 38/38/37
f 47/47/38 48/48/38 36/36/38
f 48/48/39 3/3/53 43/43/39
f 34/34/41 17/17/41 19/19/41
f 31/31/42 16/16/42 17/17/42
f 27/27/43 25/25/43 10/10/43
f 25/25/44 24/24/44 7/7/44
f 22/22/45 4/4/45 7/7/45
f 21/21/46 19/19/46 4/4/46
f 29/29/48 27/27/49 12/12/49
f 14/14/50 16/16/50 31/31/50
