# Blender v2.80 (sub 75) OBJ File: 'WeaponModels.blend'
# www.blender.org
mtllib Dagger.mtl
o Dagger_Circle.007
v -0.033780 0.303664 -0.083784
v -0.046453 0.305747 0.003920
v -0.033780 0.303664 0.091647
v -0.021108 0.305747 0.003920
v -0.033780 0.077031 0.059570
v -0.058753 0.077031 0.043270
v -0.069096 0.077031 0.003920
v -0.058753 0.077031 -0.035431
v -0.008808 0.077031 -0.035431
v 0.001536 0.077031 0.003920
v -0.008808 0.077031 0.043270
v -0.033780 0.077031 -0.051730
v -0.033780 0.025897 -0.073602
v -0.033780 -0.001627 -0.047780
v -0.056980 -0.001627 -0.032637
v -0.068567 0.025897 -0.050896
v -0.066589 -0.001627 0.003920
v -0.082976 0.025897 0.003920
v -0.056980 -0.001627 0.040477
v -0.068567 0.025897 0.058736
v -0.033780 -0.001627 0.055619
v -0.033780 0.025897 0.081442
v -0.010581 -0.001627 0.040477
v 0.001006 0.025897 0.058736
v -0.000971 -0.001627 0.003920
v 0.015416 0.025897 0.003920
v -0.010581 -0.001627 -0.032637
v 0.001006 0.025897 -0.050896
v -0.033780 0.256811 0.059570
v -0.069096 0.256811 0.003920
v -0.008808 0.256811 -0.035431
v -0.008808 0.256811 0.043270
v -0.058753 0.256811 0.043270
v -0.058753 0.256811 -0.035431
v 0.001536 0.256811 0.003920
v -0.033780 0.256811 -0.051730
v -0.062655 0.287492 -0.146051
v -0.033780 0.285290 -0.153657
v -0.070821 0.288841 0.003920
v -0.062655 0.287492 0.157805
v -0.033780 0.285290 0.165912
v -0.004905 0.287492 0.157805
v 0.003261 0.288841 0.003920
v -0.004905 0.287492 -0.146051
v -0.033780 0.963085 0.003920
v -0.033780 0.663170 0.091351
v -0.046453 0.665253 0.003920
v -0.021108 0.665253 0.003920
v -0.033780 0.663170 -0.080778
v -0.033780 0.858820 0.050096
v -0.039268 0.860903 0.003920
v -0.028293 0.860903 0.003920
v -0.033780 0.858820 -0.042256
v -0.062655 0.304563 -0.146063
v -0.033780 0.302361 -0.153669
v -0.070821 0.305912 0.003908
v -0.062655 0.304563 0.157794
v -0.033780 0.302361 0.165901
v -0.004905 0.304563 0.157794
v 0.003261 0.305912 0.003908
v -0.004905 0.304563 -0.146063
v -0.021108 0.485500 0.003920
v -0.033780 0.483417 0.084884
v -0.046453 0.485500 0.003920
v -0.033780 0.483417 -0.074479
vt 0.000000 0.000000
vt 0.000000 0.000000
vt 0.000000 0.000000
vt 0.000000 0.000000
vt 0.000000 0.000000
vt 0.000000 0.000000
vt 0.000000 0.000000
vt 0.000000 0.000000
vt 0.000000 0.000000
vt 0.000000 0.000000
vt 0.000000 0.000000
vt 0.000000 0.000000
vt 0.000000 0.000000
vt 0.000000 0.000000
vt 0.000000 0.000000
vt 0.000000 0.000000
vt 0.000000 0.000000
vt 0.000000 0.000000
vt 0.000000 0.000000
vt 0.000000 0.000000
vt 0.000000 0.000000
vt 0.000000 0.000000
vt 0.000000 0.000000
vt 0.000000 0.000000
vt 0.000000 0.000000
vt 0.000000 0.000000
vt 0.000000 0.000000
vt 0.000000 0.000000
vt 0.000000 0.000000
vt 0.000000 0.000000
vt 0.000000 0.000000
vt 0.000000 0.000000
vt 0.000000 0.000000
vt 0.000000 0.000000
vt 0.000000 0.000000
vt 0.000000 0.000000
vt 0.000000 0.000000
vt 0.000000 0.000000
vt 0.000000 0.000000
vt 0.000000 0.000000
vt 0.000000 0.000000
vt 0.000000 0.000000
vt 0.000000 0.000000
vt 0.000000 0.000000
vt 0.000000 0.000000
vt 0.000000 0.000000
vt 0.000000 0.000000
vt 0.000000 0.000000
vt 0.000000 0.000000
vt 0.000000 0.000000
vt 0.000000 0.000000
vt 0.000000 0.000000
vt 0.000000 0.000000
vt 0.000000 0.000000
vt 0.000000 0.000000
vt 0.000000 0.000000
vt 0.000000 0.000000
vt 0.000000 0.000000
vt 0.000000 0.000000
vt 0.000000 0.000000
vt 0.000000 0.000000
vt 0.000000 0.000000
vt 0.000000 0.000000
vt 0.000000 0.000000
vt 0.000000 0.000000
vn 0.5146 0.3372 -0.7884
vn -0.1632 -0.9544 0.2501
vn -0.9531 -0.2987 -0.0492
vn 0.9658 -0.0520 -0.2539
vn 0.1447 -0.9558 0.2560
vn -0.9658 -0.0520 0.2539
vn -0.1428 -0.9532 -0.2663
vn 0.1683 -0.9514 -0.2579
vn 0.9527 -0.3001 0.0479
vn 0.9354 0.2539 -0.2459
vn -0.9354 0.2539 -0.2459
vn 0.0000 -1.0000 0.0000
vn -0.5146 0.3372 0.7884
vn 0.9354 0.2539 0.2459
vn -0.9354 0.2539 0.2459
vn 0.5146 0.3372 0.7884
vn -0.4298 -0.6178 -0.6585
vn -0.8381 -0.4990 -0.2203
vn -0.8381 -0.4990 0.2203
vn -0.4298 -0.6178 0.6585
vn 0.4298 -0.6178 0.6585
vn 0.8381 -0.4990 0.2203
vn 0.8381 -0.4990 -0.2203
vn 0.4298 -0.6178 -0.6585
vn -0.5146 0.3372 -0.7884
vn 0.9671 0.0000 0.2542
vn 0.5466 0.0000 -0.8374
vn -0.5466 0.0000 -0.8374
vn -0.9671 0.0000 0.2542
vn 0.5466 0.0000 0.8374
vn 0.9671 0.0000 -0.2542
vn -0.9671 0.0000 -0.2542
vn -0.5466 0.0000 0.8374
vn -0.2548 -0.0007 -0.9670
vn -0.2703 0.0007 0.9628
vn 0.9985 -0.0000 -0.0544
vn -0.9986 0.0000 0.0530
vn 0.9986 0.0000 0.0530
vn -0.9891 0.0304 0.1441
vn 0.9922 0.0364 0.1195
vn -0.9922 0.0364 -0.1195
vn 0.9885 0.0293 -0.1486
vn -0.9913 0.0532 0.1202
vn 0.9913 0.0532 0.1202
vn -0.9913 0.0532 -0.1202
vn 0.9913 0.0532 -0.1202
vn 0.2548 -0.0007 -0.9670
vn 0.2703 0.0007 0.9628
vn -0.9985 -0.0000 -0.0544
vn 0.9872 0.0000 -0.1596
vn -0.9872 0.0000 -0.1596
vn 0.9880 0.0000 0.1546
vn -0.9897 0.0054 0.1431
vn 0.0000 1.0000 -0.0090
vn -0.1622 -0.9868 -0.0000
vn -0.9880 -0.0056 0.1545
vn 0.9897 0.0000 0.1434
vn -0.9890 0.0000 -0.1480
vn 0.9890 0.0000 -0.1480
vn -0.1447 -0.9558 0.2560
vn -0.9658 -0.0520 -0.2539
vn 0.9531 -0.2987 -0.0492
vn 0.1632 -0.9544 0.2501
vn -0.9527 -0.3001 0.0479
vn -0.1683 -0.9514 -0.2579
vn 0.1428 -0.9532 -0.2663
vn 0.9658 -0.0520 0.2539
vn -0.9922 0.0364 0.1195
vn 0.9891 0.0304 0.1441
vn -0.9885 0.0293 -0.1486
vn 0.9922 0.0364 -0.1195
vn 0.9897 0.0074 -0.1432
vn -0.9897 0.0074 -0.1432
vn 0.9897 0.0054 0.1431
vn -0.9880 0.0000 0.1546
vn 0.0000 0.9606 -0.2781
vn 0.0000 1.0000 0.0088
vn 0.0000 0.9650 0.2621
vn -0.9897 0.0000 0.1434
vn 0.9880 -0.0056 0.1545
vn -0.9872 -0.0056 -0.1594
vn 0.9872 -0.0056 -0.1594
usemtl None
s off
f 28/1/1 12/2/1 9/3/1
f 29/4/2 40/5/2 33/6/2
f 34/7/3 39/8/3 37/9/3
f 31/10/4 43/11/4 35/12/4
f 29/4/5 42/13/5 41/14/5
f 33/6/6 39/8/6 30/15/6
f 36/16/7 37/9/7 38/17/7
f 36/16/8 44/18/8 31/10/8
f 32/19/9 43/11/9 42/13/9
f 26/20/10 9/3/10 10/21/10
f 18/22/11 8/23/11 16/24/11
f 19/25/12 17/26/12 25/27/12
f 20/28/13 5/29/13 6/30/13
f 26/20/14 11/31/14 24/32/14
f 18/22/15 6/30/15 7/33/15
f 24/32/16 5/29/16 22/34/16
f 16/24/17 14/35/17 15/36/17
f 18/22/18 15/36/18 17/26/18
f 18/22/19 19/25/19 20/28/19
f 20/28/20 21/37/20 22/34/20
f 24/32/21 21/37/21 23/38/21
f 26/20/22 23/38/22 25/27/22
f 26/20/23 27/39/23 28/1/23
f 28/1/24 14/35/24 13/40/24
f 16/24/25 12/2/25 13/40/25
f 10/21/26 32/19/26 11/31/26
f 12/2/27 31/10/27 9/3/27
f 8/23/28 36/16/28 12/2/28
f 6/30/29 30/15/29 7/33/29
f 11/31/30 29/4/30 5/29/30
f 9/3/31 35/12/31 10/21/31
f 7/33/32 34/7/32 8/23/32
f 5/29/33 33/6/33 6/30/33
f 37/9/34 55/41/34 38/17/34
f 40/5/35 58/42/35 57/43/35
f 43/11/36 61/44/36 60/45/36
f 39/8/37 57/43/37 56/46/37
f 43/11/38 59/47/38 42/13/38
f 50/48/39 47/49/39 46/50/39
f 50/48/40 48/51/40 52/52/40
f 53/53/41 47/49/41 51/54/41
f 53/53/42 48/51/42 49/55/42
f 45/56/43 51/54/43 50/48/43
f 45/56/44 50/48/44 52/52/44
f 45/56/45 53/53/45 51/54/45
f 45/56/46 52/52/46 53/53/46
f 44/18/47 55/41/47 61/44/47
f 42/13/48 58/42/48 41/14/48
f 39/8/49 54/57/49 37/9/49
f 4/58/50 65/59/50 62/60/50
f 65/59/51 2/61/51 64/62/51
f 63/63/52 4/58/52 62/60/52
f 63/63/53 2/61/53 3/64/53
f 60/45/54 61/44/54 54/57/54
f 2/61/55 1/65/55 3/64/55
f 46/50/56 64/62/56 63/63/56
f 46/50/57 62/60/57 48/51/57
f 49/55/58 64/62/58 47/49/58
f 62/60/59 49/55/59 48/51/59
f 28/1/1 13/40/1 12/2/1
f 29/4/60 41/14/60 40/5/60
f 34/7/61 30/15/61 39/8/61
f 31/10/62 44/18/62 43/11/62
f 29/4/63 32/19/63 42/13/63
f 33/6/64 40/5/64 39/8/64
f 36/16/65 34/7/65 37/9/65
f 36/16/66 38/17/66 44/18/66
f 32/19/67 35/12/67 43/11/67
f 26/20/10 28/1/10 9/3/10
f 18/22/11 7/33/11 8/23/11
f 17/26/12 15/36/12 25/27/12
f 15/36/12 14/35/12 27/39/12
f 25/27/12 15/36/12 27/39/12
f 25/27/12 23/38/12 19/25/12
f 23/38/12 21/37/12 19/25/12
f 20/28/13 22/34/13 5/29/13
f 26/20/14 10/21/14 11/31/14
f 18/22/15 20/28/15 6/30/15
f 24/32/16 11/31/16 5/29/16
f 16/24/17 13/40/17 14/35/17
f 18/22/18 16/24/18 15/36/18
f 18/22/19 17/26/19 19/25/19
f 20/28/20 19/25/20 21/37/20
f 24/32/21 22/34/21 21/37/21
f 26/20/22 24/32/22 23/38/22
f 26/20/23 25/27/23 27/39/23
f 28/1/24 27/39/24 14/35/24
f 16/24/25 8/23/25 12/2/25
f 10/21/26 35/12/26 32/19/26
f 12/2/27 36/16/27 31/10/27
f 8/23/28 34/7/28 36/16/28
f 6/30/29 33/6/29 30/15/29
f 11/31/30 32/19/30 29/4/30
f 9/3/31 31/10/31 35/12/31
f 7/33/32 30/15/32 34/7/32
f 5/29/33 29/4/33 33/6/33
f 37/9/34 54/57/34 55/41/34
f 40/5/35 41/14/35 58/42/35
f 43/11/36 44/18/36 61/44/36
f 39/8/37 40/5/37 57/43/37
f 43/11/38 60/45/38 59/47/38
f 50/48/68 51/54/68 47/49/68
f 50/48/69 46/50/69 48/51/69
f 53/53/70 49/55/70 47/49/70
f 53/53/71 52/52/71 48/51/71
f 44/18/47 38/17/47 55/41/47
f 42/13/48 59/47/48 58/42/48
f 39/8/49 56/46/49 54/57/49
f 4/58/72 1/65/72 65/59/72
f 65/59/73 1/65/73 2/61/73
f 63/63/74 3/64/74 4/58/74
f 63/63/75 64/62/75 2/61/75
f 55/41/76 54/57/76 61/44/76
f 54/57/54 56/46/54 60/45/54
f 56/46/77 57/43/77 59/47/77
f 57/43/78 58/42/78 59/47/78
f 59/47/77 60/45/77 56/46/77
f 46/50/79 47/49/79 64/62/79
f 46/50/80 63/63/80 62/60/80
f 49/55/81 65/59/81 64/62/81
f 62/60/82 65/59/82 49/55/82
l 2 56
l 3 57
l 1 54
l 1 61
l 3 59
l 4 60
l 14 21
