# Blender v2.80 (sub 75) OBJ File: ''
# www.blender.org
mtllib Sword.mtl
o Sword_Circle
v 0.001286 0.053359 -0.045926
v -0.030481 0.012183 -0.031530
v -0.031772 0.053549 -0.032880
v -0.045925 0.053375 -0.000281
v -0.031533 0.011606 0.030704
v -0.032882 0.052940 0.032776
v -0.000284 0.052498 0.046926
v 0.030701 0.011007 0.031750
v 0.032774 0.052308 0.033880
v 0.046927 0.052481 0.001280
v 0.031753 0.011584 -0.030484
v 0.033884 0.052917 -0.031776
v -0.043896 0.012019 -0.000630
v -0.000634 0.011187 0.044116
v 0.044116 0.011171 0.000850
v 0.000854 0.012003 -0.043896
v 0.025155 0.052920 -0.023337
v 0.001081 0.053246 -0.033786
v 0.024335 0.052470 0.025151
v 0.034787 0.052598 0.001076
v -0.024153 0.052937 0.024336
v -0.000078 0.052610 0.034786
v -0.023333 0.053386 -0.024152
v -0.033785 0.053258 -0.000077
v 0.001925 0.239951 0.036782
v -0.021330 0.240728 -0.022156
v -0.031782 0.240599 0.001919
v 0.027158 0.240261 -0.021341
v 0.060607 0.348855 -0.051676
v 0.004500 0.346991 -0.067385
v 0.023750 0.348661 0.003698
v 0.076478 0.347277 0.004610
v -0.054146 0.349117 0.058148
v 0.002019 0.344640 0.072458
v -0.021309 0.349079 0.002338
v -0.070021 0.347871 0.001689
v -0.008231 0.000275 -0.020861
v 0.008931 0.000110 -0.020573
v 0.020862 -0.000120 -0.008233
v 0.020571 -0.000279 0.008930
v 0.008231 -0.000275 0.020861
v -0.008931 -0.000109 0.020573
v -0.020861 0.000120 0.008233
v -0.020571 0.000279 -0.008930
v -0.000000 -0.000000 -0.000000
v 0.036790 0.239939 0.003072
v -0.022149 0.240278 0.026332
v 0.003084 0.240587 -0.031790
v -0.089833 0.306689 0.076450
v 0.104150 0.303850 0.005039
v 0.026338 0.239811 0.027147
v 0.004739 0.313615 -0.118447
v 0.004572 0.329691 -0.105912
v 0.095599 0.306282 -0.070728
v 0.059088 0.349070 0.060338
v 0.001570 0.311197 0.124894
v 0.093610 0.304283 0.079746
v 0.001741 0.329298 0.112285
v -0.097529 0.305192 0.000826
v -0.052720 0.350403 -0.053882
v -0.087592 0.307143 -0.073887
v 0.031172 0.969481 0.003660
v 0.004533 0.994268 -0.097848
v -0.031184 0.969745 0.002402
v 0.001810 0.993263 0.104290
v 0.020208 1.128979 0.003512
v -0.018785 1.129106 0.002560
v 0.003966 1.153522 -0.058502
v 0.011668 1.201864 0.003528
v -0.008104 1.202003 0.002501
v 0.002428 1.152868 0.064938
v 0.002652 1.200569 0.041024
v 0.003070 1.243612 0.003018
v 0.003535 1.200921 -0.034845
vt 0.000000 0.000000
vt 0.000000 0.000000
vt 0.000000 0.000000
vt 0.000000 0.000000
vt 0.000000 0.000000
vt 0.000000 0.000000
vt 0.000000 0.000000
vt 0.000000 0.000000
vt 0.000000 0.000000
vt 0.000000 0.000000
vt 0.000000 0.000000
vt 0.000000 0.000000
vt 0.000000 0.000000
vt 0.000000 0.000000
vt 0.000000 0.000000
vt 0.000000 0.000000
vt 0.000000 0.000000
vt 0.000000 0.000000
vt 0.000000 0.000000
vt 0.000000 0.000000
vt 0.000000 0.000000
vt 0.000000 0.000000
vt 0.000000 0.000000
vt 0.000000 0.000000
vt 0.000000 0.000000
vt 0.000000 0.000000
vt 0.000000 0.000000
vt 0.000000 0.000000
vt 0.000000 0.000000
vt 0.000000 0.000000
vt 0.000000 0.000000
vt 0.000000 0.000000
vt 0.000000 0.000000
vt 0.000000 0.000000
vt 0.000000 0.000000
vt 0.000000 0.000000
vt 0.000000 0.000000
vt 0.000000 0.000000
vt 0.000000 0.000000
vt 0.000000 0.000000
vt 0.000000 0.000000
vt 0.000000 0.000000
vt 0.000000 0.000000
vt 0.000000 0.000000
vt 0.000000 0.000000
vt 0.000000 0.000000
vt 0.000000 0.000000
vt 0.000000 0.000000
vt 0.000000 0.000000
vt 0.000000 0.000000
vt 0.000000 0.000000
vt 0.000000 0.000000
vt 0.000000 0.000000
vt 0.000000 0.000000
vt 0.000000 0.000000
vt 0.000000 0.000000
vt 0.000000 0.000000
vt 0.000000 0.000000
vt 0.000000 0.000000
vt 0.000000 0.000000
vt 0.000000 0.000000
vt 0.000000 0.000000
vt 0.000000 0.000000
vt 0.000000 0.000000
vt 0.000000 0.000000
vt 0.000000 0.000000
vt 0.000000 0.000000
vt 0.000000 0.000000
vt 0.000000 0.000000
vt 0.000000 0.000000
vt 0.000000 0.000000
vt 0.000000 0.000000
vt 0.000000 0.000000
vt 0.000000 0.000000
vn -0.3670 -0.0418 -0.9293
vn -0.9293 -0.0487 0.3660
vn 0.3660 -0.0662 0.9283
vn 0.9283 -0.0593 -0.3671
vn -0.9164 -0.0416 -0.3981
vn -0.3982 -0.0589 0.9154
vn 0.9154 -0.0664 0.3971
vn 0.3971 -0.0491 -0.9164
vn 0.0095 0.9999 0.0094
vn 0.0095 0.9999 0.0095
vn 0.3670 -0.0138 0.9301
vn -0.3670 0.0138 -0.9301
vn -0.9302 0.0060 0.3671
vn 0.9302 -0.0060 -0.3671
vn -0.0288 0.9995 -0.0157
vn 0.0259 0.9995 0.0207
vn 0.0692 0.9968 0.0401
vn -0.0246 0.9996 -0.0151
vn -0.0009 -0.8910 -0.4540
vn 0.3119 -0.8952 -0.3182
vn 0.4371 -0.8994 -0.0009
vn 0.3013 -0.9011 0.3119
vn -0.0160 -0.8993 0.4371
vn -0.3288 -0.8950 0.3013
vn -0.4540 -0.8908 -0.0159
vn -0.3182 -0.8892 -0.3288
vn -0.0095 -0.9999 -0.0095
vn -0.0095 -0.9999 -0.0094
vn 0.2057 -0.8412 -0.5001
vn 0.4911 -0.8466 -0.2049
vn 0.4842 -0.8505 0.2057
vn 0.1889 -0.8503 0.4911
vn -0.2217 -0.8464 0.4842
vn -0.5071 -0.8409 0.1890
vn -0.5002 -0.8371 -0.2216
vn -0.2049 -0.8372 -0.5070
vn -0.9172 0.0140 -0.3981
vn 0.9172 -0.0140 0.3981
vn -0.3982 -0.0055 0.9173
vn 0.3982 0.0055 -0.9173
vn -0.2789 -0.7442 0.6070
vn -0.2771 -0.7430 0.6092
vn -0.2754 -0.7420 0.6112
vn 0.6562 -0.7003 0.2812
vn 0.4813 0.5421 -0.6888
vn 0.7566 0.6507 -0.0645
vn 0.8180 0.5236 0.2384
vn 0.3878 0.6015 0.6984
vn -0.5071 0.4959 0.7050
vn -0.7501 0.6583 0.0633
vn -0.8159 0.5305 -0.2298
vn -0.3756 0.6209 -0.6880
vn -0.0422 0.9114 -0.4093
vn 0.0039 0.9331 0.3595
vn 0.9656 -0.0117 -0.2599
vn 0.9661 -0.0120 -0.2578
vn 0.9664 -0.0121 -0.2566
vn 0.9536 -0.0114 0.3007
vn -0.9494 -0.0152 0.3138
vn -0.9499 -0.0155 0.3122
vn -0.9502 -0.0156 0.3113
vn -0.9386 -0.0152 -0.3446
vn -0.9399 -0.0156 -0.3410
vn -0.9379 -0.0149 -0.3467
vn 0.9624 0.0654 0.2638
vn 0.9643 0.0607 0.2578
vn 0.9620 0.0664 0.2650
vn -0.9441 0.0756 -0.3208
vn -0.9448 0.0741 -0.3190
vn -0.9439 0.0760 -0.3213
vn 0.9708 0.0615 -0.2319
vn 0.9693 0.0656 -0.2371
vn 0.9690 0.0664 -0.2381
vn -0.9527 0.0759 0.2943
vn -0.9535 0.0743 0.2922
vn -0.9536 0.0739 0.2918
vn 0.9714 0.1132 -0.2089
vn 0.9713 0.1135 -0.2091
vn 0.9712 0.1138 -0.2093
vn -0.9442 0.1400 -0.2981
vn -0.9449 0.1382 -0.2968
vn 0.9652 0.1133 0.2356
vn 0.9651 0.1137 0.2358
vn 0.9651 0.1138 0.2360
vn -0.9522 0.1404 0.2711
vn -0.9524 0.1400 0.2708
vn -0.9525 0.1398 0.2707
vn 0.9513 0.1988 0.2356
vn 0.2628 -0.7383 -0.6211
vn 0.2617 -0.7376 -0.6225
vn 0.2607 -0.7369 -0.6237
vn -0.6675 -0.6844 -0.2935
vn 0.6665 -0.6941 -0.2721
vn -0.2511 -0.7382 -0.6261
vn -0.2510 -0.7381 -0.6263
vn -0.2513 -0.7383 -0.6260
vn -0.6791 -0.6869 0.2589
vn 0.2396 -0.7518 0.6144
vn 0.2407 -0.7525 0.6131
vn 0.2386 -0.7511 0.6155
vn -0.9220 0.2513 -0.2946
vn 0.9585 0.1949 -0.2079
vn -0.9310 0.2467 0.2691
vn -0.3981 -0.0589 0.9154
vn 0.0840 0.9091 -0.4081
vn 0.0266 0.9994 -0.0238
vn -0.0172 0.9331 0.3593
vn -0.0253 0.9990 0.0376
vn -0.2825 -0.7465 0.6025
vn 0.6486 -0.7550 0.0959
vn 0.4010 0.6280 -0.6669
vn 0.8241 0.5230 -0.2177
vn 0.7653 0.6351 0.1043
vn 0.4817 0.4978 0.7212
vn -0.3906 0.6215 0.6791
vn -0.8220 0.5254 0.2195
vn -0.7566 0.6486 -0.0837
vn -0.4453 0.5477 -0.7083
vn 0.0575 0.9983 -0.0086
vn -0.0697 0.9969 0.0363
vn 0.9652 -0.0116 -0.2611
vn 0.9590 -0.0136 0.2830
vn -0.9490 -0.0151 0.3148
vn -0.9406 -0.0159 -0.3390
vn 0.9648 0.0594 0.2562
vn -0.9450 0.0738 -0.3186
vn 0.9712 0.0604 -0.2305
vn -0.9525 0.0764 0.2948
vn 0.9714 0.1130 -0.2087
vn -0.9441 0.1403 -0.2983
vn 0.9653 0.1131 0.2354
vn -0.9523 0.1404 0.2711
vn 0.2651 -0.7398 -0.6184
vn -0.6608 -0.7428 -0.1073
vn 0.6535 -0.7506 -0.0978
vn -0.2507 -0.7379 -0.6266
vn -0.6662 -0.7412 0.0825
vn 0.2429 -0.7538 0.6105
usemtl None
s 1
f 1/1/1 2/2/1 3/3/1
f 4/4/2 5/5/2 6/6/2
f 7/7/3 8/8/3 9/9/3
f 10/10/4 11/11/4 12/12/4
f 3/3/5 13/13/5 4/4/5
f 6/6/6 14/14/6 7/7/6
f 9/9/7 15/15/7 10/10/7
f 12/12/8 16/16/8 1/1/8
f 17/17/9 1/1/10 18/18/10
f 17/17/9 10/10/9 12/12/9
f 19/19/9 10/10/9 20/20/9
f 19/19/9 7/7/9 9/9/9
f 21/21/9 7/7/9 22/22/9
f 21/21/9 4/4/9 6/6/9
f 23/23/10 4/4/9 24/24/9
f 18/18/10 3/3/10 23/23/10
f 19/19/11 25/25/11 22/22/11
f 26/26/12 18/18/12 23/23/12
f 21/21/13 27/27/13 24/24/13
f 28/28/14 20/20/14 17/17/14
f 29/29/15 30/30/15 31/31/15
f 31/31/16 32/32/16 29/29/16
f 33/33/17 34/34/17 35/35/17
f 35/35/18 36/36/18 33/33/18
f 37/37/19 16/16/19 38/38/19
f 39/39/20 38/38/20 11/11/20
f 40/40/21 39/39/21 15/15/21
f 41/41/22 40/40/22 8/8/22
f 42/42/23 41/41/23 14/14/23
f 43/43/24 42/42/24 5/5/24
f 44/44/25 43/43/25 13/13/25
f 37/37/26 44/44/26 2/2/26
f 37/37/27 45/45/28 44/44/28
f 16/16/29 11/11/29 38/38/29
f 45/45/28 39/39/28 40/40/28
f 11/11/30 15/15/30 39/39/30
f 15/15/31 8/8/31 40/40/31
f 8/8/32 14/14/32 41/41/32
f 14/14/33 5/5/33 42/42/33
f 5/5/34 13/13/34 43/43/34
f 45/45/28 43/43/28 44/44/28
f 13/13/35 2/2/35 44/44/35
f 2/2/36 16/16/36 37/37/36
f 24/24/37 26/26/37 23/23/37
f 46/46/38 19/19/38 20/20/38
f 22/22/39 47/47/39 21/21/39
f 48/48/40 17/17/40 18/18/40
f 25/25/41 49/49/42 47/47/43
f 50/50/44 51/51/44 46/46/44
f 29/29/45 52/52/45 53/53/45
f 29/29/46 50/50/46 54/54/46
f 55/55/47 50/50/47 32/32/47
f 55/55/48 56/56/48 57/57/48
f 33/33/49 56/56/49 58/58/49
f 33/33/50 59/59/50 49/49/50
f 60/60/51 59/59/51 36/36/51
f 60/60/52 52/52/52 61/61/52
f 60/60/53 30/30/53 53/53/53
f 55/55/54 34/34/54 58/58/54
f 62/62/55 30/30/56 63/63/57
f 62/62/58 34/34/58 31/31/58
f 64/64/59 34/34/60 65/65/61
f 64/64/62 30/30/63 35/35/64
f 66/66/65 65/65/66 62/62/67
f 63/63/68 67/67/69 68/68/70
f 63/63/71 66/66/72 62/62/73
f 65/65/74 67/67/75 64/64/76
f 68/68/77 69/69/78 66/66/79
f 70/70/80 68/68/80 67/67/81
f 71/71/82 69/69/83 72/72/84
f 71/71/85 70/70/86 67/67/87
f 72/72/88 69/69/88 73/73/88
f 48/48/89 54/54/90 28/28/91
f 59/59/92 26/26/92 27/27/92
f 28/28/93 50/50/93 46/46/93
f 61/61/94 48/48/95 26/26/96
f 47/47/97 59/59/97 27/27/97
f 57/57/98 25/25/99 51/51/100
f 70/70/101 73/73/101 74/74/101
f 69/69/102 74/74/102 73/73/102
f 73/73/103 70/70/103 72/72/103
f 45/45/28 41/41/28 42/42/28
f 1/1/1 16/16/1 2/2/1
f 4/4/2 13/13/2 5/5/2
f 7/7/3 14/14/3 8/8/3
f 10/10/4 15/15/4 11/11/4
f 3/3/5 2/2/5 13/13/5
f 6/6/6 5/5/104 14/14/6
f 9/9/7 8/8/7 15/15/7
f 12/12/8 11/11/8 16/16/8
f 17/17/9 12/12/9 1/1/10
f 17/17/9 20/20/9 10/10/9
f 19/19/9 9/9/9 10/10/9
f 19/19/9 22/22/9 7/7/9
f 21/21/9 6/6/9 7/7/9
f 21/21/9 24/24/9 4/4/9
f 23/23/10 3/3/10 4/4/9
f 18/18/10 1/1/10 3/3/10
f 19/19/11 51/51/11 25/25/11
f 26/26/12 48/48/12 18/18/12
f 21/21/13 47/47/13 27/27/13
f 28/28/14 46/46/14 20/20/14
f 29/29/105 53/53/105 30/30/105
f 31/31/106 55/55/106 32/32/106
f 33/33/107 58/58/107 34/34/107
f 35/35/108 60/60/108 36/36/108
f 37/37/27 38/38/27 45/45/28
f 45/45/28 38/38/27 39/39/28
f 45/45/28 42/42/28 43/43/28
f 24/24/37 27/27/37 26/26/37
f 46/46/38 51/51/38 19/19/38
f 22/22/39 25/25/39 47/47/39
f 48/48/40 28/28/40 17/17/40
f 25/25/41 56/56/109 49/49/42
f 50/50/110 57/57/110 51/51/110
f 29/29/111 54/54/111 52/52/111
f 29/29/112 32/32/112 50/50/112
f 55/55/113 57/57/113 50/50/113
f 55/55/114 58/58/114 56/56/114
f 33/33/115 49/49/115 56/56/115
f 33/33/116 36/36/116 59/59/116
f 60/60/117 61/61/117 59/59/117
f 60/60/118 53/53/118 52/52/118
f 60/60/119 35/35/119 30/30/119
f 55/55/120 31/31/120 34/34/120
f 62/62/55 31/31/121 30/30/56
f 62/62/122 65/65/122 34/34/122
f 64/64/59 35/35/123 34/34/60
f 64/64/62 63/63/124 30/30/63
f 66/66/65 71/71/125 65/65/66
f 63/63/68 64/64/126 67/67/69
f 63/63/71 68/68/127 66/66/72
f 65/65/74 71/71/128 67/67/75
f 68/68/77 74/74/129 69/69/78
f 70/70/80 74/74/130 68/68/80
f 71/71/82 66/66/131 69/69/83
f 71/71/85 72/72/132 70/70/86
f 48/48/89 52/52/133 54/54/90
f 59/59/134 61/61/134 26/26/134
f 28/28/135 54/54/135 50/50/135
f 61/61/94 52/52/136 48/48/95
f 47/47/137 49/49/137 59/59/137
f 57/57/98 56/56/138 25/25/99
f 45/45/28 40/40/28 41/41/28
