# Blender v2.80 (sub 75) OBJ File: 'Weapons.blend'
# www.blender.org
mtllib Trident.mtl
o Trident_Circle.006
v -0.033776 1.085644 -0.224772
v -0.014650 1.266816 -0.216736
v -0.014570 1.085169 -0.216817
v -0.006729 1.266670 -0.197611
v -0.006614 1.085037 -0.197610
v -0.032355 1.085896 -0.172864
v -0.014650 1.267554 -0.178486
v -0.033775 1.267620 -0.170564
v -0.060936 1.087330 -0.197610
v -0.052900 1.268993 -0.178486
v -0.060822 1.269230 -0.197611
v -0.052900 1.267658 -0.216736
v -0.056493 1.354754 -0.197611
v -0.014570 1.085829 -0.178405
v -0.052982 1.087117 -0.178405
v -0.011433 1.354754 -0.197611
v -0.052982 1.085923 -0.216816
v -0.033775 1.535953 -0.197611
v -0.033775 1.354754 -0.260783
v -0.033775 1.354754 -0.134438
v -0.033775 1.267346 -0.224657
v -0.032471 1.082354 0.154383
v -0.014883 1.258512 0.160471
v -0.014804 1.082200 0.160392
v -0.006961 1.258366 0.179596
v -0.006850 1.082069 0.179596
v -0.034008 1.082922 0.206753
v -0.014883 1.259250 0.198720
v -0.034007 1.259316 0.206642
v -0.061165 1.084369 0.179596
v -0.053132 1.260690 0.198720
v -0.061054 1.260926 0.179596
v -0.053132 1.259355 0.160471
v -0.056725 1.346451 0.179596
v -0.014804 1.082863 0.198799
v -0.053211 1.084156 0.198798
v -0.011665 1.346451 0.179596
v -0.053211 1.082957 0.160393
v -0.034007 1.527649 0.179596
v -0.034007 1.346451 0.116423
v -0.034007 1.346451 0.242768
v -0.034007 1.259043 0.152549
v -0.057981 1.058901 -0.179455
v -0.050059 1.039745 -0.177313
v -0.030934 1.031818 -0.177062
v -0.050059 1.076556 -0.178197
v -0.011809 1.073750 -0.175492
v -0.011809 1.039726 -0.175728
v -0.003888 1.058843 -0.174641
v -0.058092 1.054914 0.152456
v -0.050138 1.074106 0.153671
v -0.011731 1.074078 0.156101
v -0.003777 1.054861 0.156779
v -0.050138 1.035683 0.154294
v -0.011731 1.035665 0.155716
v -0.030935 1.027724 0.154483
v -0.030904 1.082152 -0.034016
v -0.011778 1.367655 -0.025807
v -0.011577 1.072641 -0.026010
v -0.003857 1.367509 -0.006682
v -0.003570 1.054978 -0.006682
v -0.030905 1.081072 0.020650
v -0.011778 1.368393 0.012442
v -0.030903 1.368459 0.020364
v -0.050232 1.073522 0.012644
v -0.057950 1.370069 -0.006682
v -0.058237 1.054790 -0.006681
v -0.050028 1.368498 -0.025807
v -0.053621 1.455594 -0.006682
v -0.011577 1.071855 0.012646
v -0.050028 1.369833 0.012442
v -0.008561 1.455594 -0.006682
v -0.050232 1.073025 -0.026008
v -0.030903 1.636792 -0.006682
v -0.030903 1.455594 -0.069855
v -0.030903 1.455594 0.056490
v -0.030903 1.368186 -0.033729
v -0.050640 0.002482 -0.026409
v -0.002998 0.002273 -0.006680
v -0.030909 0.002474 0.021223
v -0.030905 1.029447 -0.034302
v -0.030906 0.002417 -0.034588
v -0.050436 1.036912 0.012845
v -0.058810 0.002816 -0.006677
v -0.050641 0.002766 0.013046
v -0.030907 1.028117 0.020937
v -0.011173 0.002462 0.013053
v -0.011375 1.035786 -0.026213
v -0.011173 0.002305 -0.026417
v -0.050436 1.038527 -0.026209
v -0.011375 1.038181 0.012849
v -0.030907 0.002545 -0.006678
vt 0.951216 0.307040
vt 0.962988 0.203496
vt 0.963335 0.307288
vt 0.974683 0.203650
vt 0.975350 0.307299
vt 0.998213 0.306601
vt 0.986367 0.202939
vt 0.998213 0.202052
vt 0.152765 0.881577
vt 0.049059 0.893568
vt 0.049007 0.881875
vt 0.049724 0.870168
vt 0.000248 0.882081
vt 0.987360 0.306753
vt 0.152901 0.893689
vt 0.049104 0.905494
vt 0.974390 0.153432
vt 0.153523 0.869461
vt 0.881366 0.000248
vt 0.950651 0.085470
vt 0.914795 0.099280
vt 0.963594 0.742675
vt 0.926808 0.731828
vt 0.959745 0.689051
vt 0.910668 0.152935
vt 0.877904 0.110026
vt 0.929973 0.841614
vt 0.950651 0.139602
vt 0.999372 0.756486
vt 0.049110 0.858271
vt 0.153599 0.857506
vt 0.951147 0.202503
vt 0.999372 0.702353
vt 0.998210 0.308164
vt 0.986379 0.408704
vt 0.987337 0.307961
vt 0.974688 0.408401
vt 0.975323 0.307796
vt 0.951185 0.308199
vt 0.962998 0.408964
vt 0.951147 0.409698
vt 0.975687 0.001236
vt 0.987825 0.101873
vt 0.976134 0.101943
vt 0.964427 0.101245
vt 0.976415 0.150699
vt 0.963306 0.308190
vt 0.987799 0.001082
vt 0.999752 0.101809
vt 0.974338 0.458615
vt 0.963570 0.000494
vt 0.881366 0.153432
vt 0.950651 0.238652
vt 0.914794 0.252463
vt 0.963593 0.895735
vt 0.926808 0.884888
vt 0.959745 0.842111
vt 0.910668 0.306118
vt 0.877904 0.263208
vt 0.929973 0.994673
vt 0.950651 0.292785
vt 0.999372 0.909546
vt 0.952530 0.101877
vt 0.951147 0.000248
vt 0.998210 0.409848
vt 0.999372 0.855413
vt 0.488608 0.885548
vt 0.495696 0.859967
vt 0.496155 0.894785
vt 0.507338 0.857506
vt 0.507338 0.898705
vt 0.479535 0.879156
vt 0.485651 0.866395
vt 0.468342 0.883063
vt 0.476316 0.873772
vt 0.437257 0.881139
vt 0.427164 0.877701
vt 0.440564 0.874648
vt 0.447322 0.887499
vt 0.467845 0.857506
vt 0.456519 0.895050
vt 0.456230 0.859951
vt 0.447083 0.867500
vt 0.364896 0.868682
vt 0.356054 0.883100
vt 0.355911 0.876501
vt 0.344833 0.877907
vt 0.386021 0.877254
vt 0.396588 0.875700
vt 0.398287 0.880977
vt 0.406422 0.869003
vt 0.406707 0.889400
vt 0.373806 0.898882
vt 0.364347 0.891667
vt 0.374208 0.861180
vt 0.385524 0.901051
vt 0.415327 0.861102
vt 0.415228 0.897720
vt 0.426667 0.901051
vt 0.426667 0.857506
vt 0.877904 0.901909
vt 0.891035 0.739045
vt 0.890028 0.907514
vt 0.902746 0.739316
vt 0.902046 0.917752
vt 0.926311 0.902724
vt 0.914455 0.738731
vt 0.926311 0.737969
vt 0.914150 0.470556
vt 0.902746 0.639864
vt 0.902052 0.459797
vt 0.891035 0.639175
vt 0.903014 0.688555
vt 0.914142 0.908063
vt 0.926324 0.474929
vt 0.914443 0.639813
vt 0.902978 0.689051
vt 0.890035 0.470365
vt 0.881366 0.306615
vt 0.950651 0.391835
vt 0.914794 0.405646
vt 0.963606 0.513421
vt 0.926821 0.502574
vt 0.959758 0.459797
vt 0.910668 0.459301
vt 0.877904 0.416391
vt 0.929986 0.612360
vt 0.950651 0.445967
vt 0.999385 0.527232
vt 0.877904 0.475748
vt 0.879183 0.639812
vt 0.879199 0.737929
vt 0.999385 0.473100
vt 0.926324 0.639762
vt 0.430836 0.418133
vt 0.029517 0.005809
vt 0.441333 0.411701
vt 0.015763 0.845656
vt 0.424383 0.428624
vt 0.430783 0.439181
vt 0.029279 0.851384
vt 0.451867 0.439204
vt 0.848117 0.857009
vt 0.441327 0.445592
vt 0.861355 0.006942
vt 0.458308 0.428638
vt 0.451847 0.418106
vt 0.848843 0.000248
vt 0.247924 0.873689
vt 0.234232 0.954385
vt 0.235698 0.868839
vt 0.188916 0.858082
vt 0.200383 0.940598
vt 0.188159 0.945208
vt 0.177832 0.857506
vt 0.176906 0.956417
vt 0.166454 0.945360
vt 0.165983 0.858873
vt 0.154096 0.940809
vt 0.154135 0.859089
vt 0.224585 0.953662
vt 0.224875 0.857506
vt 0.212730 0.954006
vt 0.200977 0.872962
vt 0.200880 0.954682
vt 0.212755 0.868401
vt 0.332439 0.949692
vt 0.344337 0.873375
vt 0.332083 0.868731
vt 0.320533 0.948587
vt 0.309268 0.868523
vt 0.308640 0.949238
vt 0.297367 0.873038
vt 0.297478 0.949589
vt 0.284076 0.950915
vt 0.296870 0.873565
vt 0.296870 0.950117
vt 0.272167 0.951040
vt 0.284684 0.868801
vt 0.263406 0.868459
vt 0.260289 0.950183
vt 0.250706 0.872736
vt 0.015826 0.011423
vt 0.862294 0.852032
vt 0.153599 0.905970
vt 0.999752 0.000369
vt 0.467845 0.898705
vt 0.385524 0.857506
vt 0.000248 0.844238
vt 0.877407 0.007643
vt 0.247924 0.953192
vt 0.200383 0.861095
vt 0.344337 0.949811
vt 0.320968 0.857506
vt 0.274239 0.857506
vt 0.248420 0.949138
vt 0.000982 0.013472
vt 0.877407 0.850385
vt 0.441333 0.428650
vn 0.3827 0.0006 -0.9239
vn 0.9239 0.0006 -0.3827
vn 0.3827 -0.0087 0.9239
vn -0.9239 0.0006 0.3827
vn -0.9215 0.0466 -0.3855
vn 0.9239 0.0006 0.3826
vn -0.3827 0.0006 0.9239
vn 0.9229 0.0493 -0.3819
vn -0.9239 0.0006 -0.3827
vn -0.9345 0.1172 -0.3361
vn 0.9339 -0.1369 0.3303
vn -0.9319 -0.1389 0.3351
vn -0.9345 0.1172 0.3361
vn 0.9365 0.1155 0.3312
vn -0.9319 -0.1385 -0.3351
vn 0.9365 0.1155 -0.3312
vn -0.3827 0.0006 -0.9239
vn 0.3805 0.1832 -0.9064
vn -0.3735 0.1842 -0.9091
vn -0.9227 0.0467 0.3828
vn 0.9339 -0.1365 -0.3303
vn 0.9236 0.0493 0.3802
vn 0.3766 0.1852 0.9077
vn -0.3643 0.1881 0.9121
vn 0.3220 0.0006 -0.9467
vn 0.3827 0.0006 0.9239
vn 0.9239 0.0006 0.3827
vn -0.2786 -0.0124 -0.9603
vn 0.3806 0.1832 -0.9064
vn -0.3736 0.1842 -0.9091
vn 0.9235 0.0493 0.3803
vn -0.8336 -0.3886 -0.3926
vn -0.2593 -0.6483 -0.7159
vn -0.7536 0.2964 0.5867
vn -0.2620 -0.0535 0.9636
vn 0.2860 0.2859 0.9146
vn 0.8886 0.2890 0.3562
vn 0.3093 -0.6274 -0.7147
vn 0.8291 -0.3174 -0.4603
vn -0.6411 0.3118 -0.7012
vn -0.6414 0.3102 -0.7017
vn -0.2196 0.5405 -0.8121
vn 0.2774 0.5288 -0.8022
vn 0.8839 0.3551 -0.3044
vn -0.8454 -0.4059 0.3472
vn -0.8456 -0.4068 0.3457
vn -0.3260 -0.6505 0.6860
vn 0.8135 -0.3623 0.4549
vn 0.2892 -0.6497 0.7031
vn 0.3831 0.0009 -0.9237
vn 0.9241 0.0008 -0.3821
vn 0.9242 0.0008 -0.3819
vn 0.3827 0.0009 0.9239
vn -0.9241 0.0033 0.3822
vn -0.9242 0.0010 0.3818
vn -0.9242 0.0008 0.3820
vn -0.9216 0.0467 -0.3853
vn 0.9239 0.0009 0.3826
vn 0.9239 0.0010 0.3827
vn -0.3830 0.0009 0.9237
vn -0.3807 0.0012 0.9247
vn 0.9229 0.0492 -0.3819
vn -0.9239 0.0009 -0.3828
vn -0.9238 0.0011 -0.3828
vn -0.9238 0.0009 -0.3828
vn -0.3827 0.0009 -0.9239
vn -0.3827 0.0010 -0.9239
vn -0.3737 0.1842 -0.9091
vn -0.9227 0.0465 0.3828
vn 0.9340 -0.1365 -0.3303
vn 0.9236 0.0493 0.3803
vn 0.9236 0.0494 0.3801
vn -0.3831 0.0010 -0.9237
vn -0.3829 0.0003 -0.9238
vn -0.9252 0.0002 0.3795
vn -0.9247 -0.0061 0.3807
vn -0.9236 0.0014 0.3833
vn -0.3818 0.0012 0.9242
vn -0.3827 0.0003 0.9239
vn -0.3857 -0.0008 0.9226
vn 0.3825 0.0003 0.9240
vn 0.3829 -0.0026 0.9238
vn 0.9249 -0.0005 -0.3802
vn 0.9250 -0.0069 -0.3800
vn 0.9236 0.0004 -0.3833
vn 0.3819 0.0001 -0.9242
vn 0.3826 0.0003 -0.9239
vn 0.3848 -0.0012 -0.9230
vn -0.4395 -0.8982 -0.0060
vn 0.4199 -0.9073 -0.0206
vn 0.4198 -0.9074 -0.0205
vn 0.9123 -0.4094 -0.0084
vn 0.9124 -0.4093 -0.0083
vn -0.9247 -0.3806 -0.0071
vn -0.9239 -0.3827 -0.0054
vn -0.3827 -0.9238 -0.0153
vn -0.9075 -0.4201 -0.0079
vn 0.3830 -0.9236 -0.0154
vn 0.9240 -0.3821 -0.0128
vn 0.9230 -0.3845 -0.0137
vn 0.4082 0.9129 0.0071
vn -0.9240 -0.3825 -0.0030
vn -0.9227 -0.3855 -0.0012
vn -0.9240 -0.3823 -0.0014
vn -0.9242 0.3820 0.0013
vn -0.9231 0.3845 -0.0008
vn -0.9238 0.3829 -0.0010
vn -0.4225 0.9062 -0.0136
vn 0.3709 0.9286 -0.0046
vn 0.9240 0.3823 -0.0049
vn 0.9250 -0.3799 -0.0028
vn 0.9239 -0.3826 -0.0044
vn -0.4532 0.8913 0.0146
vn -0.9264 -0.0017 -0.3766
vn -0.9232 -0.0017 -0.3844
vn -0.9242 -0.0000 -0.3819
vn 0.9266 -0.0025 0.3761
vn 0.9228 -0.0017 0.3853
vn 0.9239 0.0003 0.3827
vn 0.9239 0.0006 -0.3826
vn 0.2975 0.0006 0.9547
vn -0.9239 0.0006 0.3826
vn -0.2602 -0.0143 0.9655
vn -0.3826 0.0006 -0.9239
vn 0.3826 -0.0063 -0.9239
vn -0.8857 -0.3117 -0.3440
vn -0.3050 -0.6302 -0.7141
vn -0.8976 -0.2412 0.3691
vn 0.7939 0.4455 0.4138
vn 0.2847 -0.6274 -0.7248
vn 0.8863 -0.2798 -0.3690
vn -0.8845 0.2643 -0.3845
vn -0.8843 0.2631 -0.3856
vn 0.8105 0.4823 -0.3324
vn -0.8888 -0.3400 0.3074
vn -0.8894 -0.3385 0.3073
vn -0.2835 -0.6677 0.6884
vn 0.8984 -0.2182 0.3811
vn 0.2219 -0.6495 0.7273
vn 0.3827 0.0009 -0.9239
vn 0.9239 0.0009 -0.3826
vn 0.9239 0.0008 -0.3825
vn 0.3830 0.0009 0.9238
vn -0.9236 0.0033 0.3833
vn -0.9239 0.0009 0.3827
vn -0.9240 0.0009 0.3825
vn 0.9241 0.0008 0.3821
vn 0.9241 0.0008 0.3822
vn -0.3826 0.0009 0.9239
vn -0.9242 0.0008 -0.3820
vn -0.9241 0.0010 -0.3822
vn -0.3831 0.0009 -0.9237
vn -0.3830 0.0009 -0.9237
vn -0.3802 0.0009 -0.9249
vn -0.3827 0.0003 -0.9239
vn -0.9283 0.0039 0.3718
vn -0.9285 0.0005 0.3714
vn -0.9270 -0.0050 0.3750
vn -0.3818 -0.0005 0.9242
vn -0.3802 0.0007 0.9249
vn -0.3828 0.0003 0.9238
vn 0.3796 0.0014 0.9252
vn 0.9284 0.0033 -0.3715
vn 0.9284 0.0005 -0.3715
vn 0.9270 -0.0061 -0.3751
vn 0.3824 -0.0004 -0.9240
vn -0.5105 -0.8597 -0.0178
vn 0.4732 -0.8805 -0.0287
vn 0.9126 -0.4089 -0.0084
vn 0.9125 -0.4090 -0.0083
vn -0.9071 -0.4208 -0.0086
vn -0.9068 -0.4213 -0.0114
vn -0.4244 -0.9054 -0.0084
vn -0.4259 -0.9047 -0.0106
vn -0.8830 -0.4693 -0.0021
vn 0.3183 -0.9476 -0.0259
vn 0.3162 -0.9484 -0.0242
vn 0.9299 -0.3678 -0.0102
vn 0.9292 -0.3694 -0.0124
vn 0.3829 0.9238 0.0028
vn -0.9170 -0.3988 -0.0005
vn -0.9170 -0.3989 0.0011
vn -0.9160 -0.4012 0.0034
vn -0.9203 0.3911 -0.0015
vn -0.9198 0.3925 0.0005
vn -0.9196 0.3928 -0.0011
vn -0.3626 0.9320 -0.0036
vn -0.3631 0.9318 -0.0012
vn 0.4258 0.9047 -0.0136
vn 0.9041 0.4273 0.0015
vn 0.9074 -0.4202 -0.0025
vn 0.9073 -0.4206 0.0008
vn -0.3823 0.9240 0.0026
vn -0.9300 -0.0049 -0.3676
vn -0.9285 0.0005 -0.3713
vn -0.9280 -0.0020 -0.3726
vn 0.9299 -0.0060 0.3677
vn 0.9284 0.0005 0.3715
vn 0.9277 -0.0023 0.3732
vn -0.0078 -1.0000 -0.0049
vn 0.0019 -1.0000 0.0004
vn -0.0057 -1.0000 0.0015
vn -0.0086 -1.0000 0.0014
vn -0.0086 -1.0000 0.0035
vn -0.0079 -1.0000 0.0035
vn -0.0047 -0.9999 0.0101
vn -0.0158 -0.9999 0.0063
vn -0.0050 -1.0000 0.0082
vn -0.0056 -0.9999 0.0087
vn -0.0027 -0.9999 0.0159
vn -0.0123 -0.9999 0.0093
vn -0.0148 -0.9999 -0.0065
vn -0.0053 -1.0000 -0.0026
vn -0.0129 -0.9999 0.0021
vn -0.0128 -0.9999 -0.0014
usemtl None.005
s off
f 1/1/1 2/2/1 3/3/1
f 3/3/2 4/4/2 5/5/2
f 6/6/3 7/7/3 8/8/3
f 9/9/4 10/10/4 11/11/4
f 12/12/5 11/11/5 13/13/5
f 14/14/6 4/4/6 7/7/6
f 15/15/7 8/16/7 10/10/7
f 4/4/8 2/2/8 16/17/8
f 9/9/9 12/12/9 17/18/9
f 18/19/10 19/20/10 13/21/10
f 16/22/11 20/23/11 8/24/11
f 13/21/12 8/25/12 20/26/12
f 18/19/13 13/21/13 20/26/13
f 18/27/14 20/23/14 16/22/14
f 13/21/15 19/20/15 21/28/15
f 18/27/16 16/22/16 19/29/16
f 17/18/17 21/30/17 1/31/17
f 2/2/18 21/32/18 16/17/18
f 21/30/19 12/12/19 13/13/19
f 11/11/20 10/10/20 13/13/20
f 16/22/21 21/33/21 19/29/21
f 7/7/22 4/4/22 16/17/22
f 8/8/23 7/7/23 16/17/23
f 10/10/24 8/16/24 13/13/24
f 22/34/25 23/35/25 24/36/25
f 24/36/2 25/37/2 26/38/2
f 27/39/26 28/40/26 29/41/26
f 30/42/4 31/43/4 32/44/4
f 33/45/5 32/44/5 34/46/5
f 35/47/27 25/37/27 28/40/27
f 36/48/7 29/49/7 31/43/7
f 25/37/8 23/35/8 37/50/8
f 30/42/9 33/45/9 38/51/9
f 39/52/10 40/53/10 34/54/10
f 37/55/11 41/56/11 29/57/11
f 34/54/12 29/58/12 41/59/12
f 39/52/13 34/54/13 41/59/13
f 39/60/14 41/56/14 37/55/14
f 34/54/15 40/53/15 42/61/15
f 39/60/16 37/55/16 40/62/16
f 38/51/28 42/63/28 22/64/28
f 23/35/29 42/65/29 37/50/29
f 42/63/30 33/45/30 34/46/30
f 32/44/20 31/43/20 34/46/20
f 37/55/21 42/66/21 40/62/21
f 28/40/31 25/37/31 37/50/31
f 29/41/23 28/40/23 37/50/23
f 31/43/24 29/49/24 34/46/24
f 43/67/32 17/68/32 44/69/32
f 44/69/33 1/70/33 45/71/33
f 46/72/34 9/73/34 43/67/34
f 46/72/35 6/74/35 15/75/35
f 14/76/36 6/77/36 47/78/36
f 47/78/37 5/79/37 14/76/37
f 45/80/38 3/81/38 48/82/38
f 48/82/39 5/79/39 49/83/39
f 50/84/40 38/85/41 51/86/41
f 22/87/42 51/86/42 38/85/42
f 22/88/43 24/89/43 52/90/43
f 52/90/44 26/91/44 53/92/44
f 50/84/45 36/93/46 30/94/46
f 54/95/47 27/96/47 36/93/47
f 53/92/48 35/97/48 55/98/48
f 56/99/49 35/97/49 27/100/49
f 57/101/50 58/102/50 59/103/50
f 59/103/51 60/104/52 61/105/51
f 62/106/53 63/107/53 64/108/53
f 65/109/54 66/110/55 67/111/56
f 68/112/5 66/110/57 69/113/5
f 70/114/58 60/104/59 63/107/58
f 62/115/60 71/116/60 65/109/61
f 60/104/62 58/102/8 72/117/8
f 73/118/63 66/110/64 68/112/65
f 74/119/10 75/120/10 69/121/10
f 72/122/11 76/123/11 64/124/11
f 69/121/12 64/125/12 76/126/12
f 74/119/13 69/121/13 76/126/13
f 74/127/14 76/123/14 72/122/14
f 69/121/15 75/120/15 77/128/15
f 74/127/16 72/122/16 75/129/16
f 57/130/66 68/112/67 77/131/66
f 58/102/18 77/132/18 72/117/18
f 77/131/30 68/112/68 69/113/30
f 66/110/69 71/116/20 69/113/20
f 72/122/70 77/133/70 75/129/70
f 63/107/71 60/104/72 72/117/71
f 64/108/23 63/107/23 72/117/23
f 71/116/24 64/134/24 69/113/24
f 78/135/73 81/136/74 82/137/74
f 83/138/75 84/139/76 85/140/77
f 85/140/78 86/141/79 83/138/80
f 87/142/81 86/143/81 80/144/82
f 88/145/83 79/146/84 89/147/85
f 89/147/86 81/148/87 88/145/88
f 57/149/89 47/150/89 59/151/89
f 46/152/90 57/153/90 73/154/91
f 43/155/92 73/154/93 67/156/92
f 90/157/94 43/155/95 44/158/95
f 81/159/96 44/158/96 45/160/96
f 59/151/97 49/161/97 61/162/97
f 48/163/98 81/164/98 45/165/98
f 49/161/99 88/166/100 48/163/99
f 54/167/101 86/168/101 83/169/101
f 50/170/102 83/169/103 54/167/104
f 65/171/105 50/170/106 51/172/107
f 62/173/108 51/172/108 22/174/108
f 52/175/109 62/176/109 22/177/109
f 53/178/110 70/179/110 52/175/110
f 91/180/111 53/178/112 55/181/112
f 86/182/113 55/181/113 91/180/113
f 84/139/114 90/183/115 78/135/116
f 79/146/117 91/184/118 87/142/119
f 1/1/1 21/32/1 2/2/1
f 3/3/120 2/2/120 4/4/120
f 6/6/121 14/14/121 7/7/121
f 9/9/122 15/15/122 10/10/122
f 14/14/27 5/5/27 4/4/27
f 15/15/123 6/185/123 8/16/123
f 9/9/9 11/11/9 12/12/9
f 17/18/124 12/12/124 21/30/124
f 22/34/125 42/65/125 23/35/125
f 24/36/2 23/35/2 25/37/2
f 27/39/26 35/47/26 28/40/26
f 30/42/4 36/48/4 31/43/4
f 35/47/27 26/38/27 25/37/27
f 36/48/7 27/186/7 29/49/7
f 30/42/9 32/44/9 33/45/9
f 38/51/17 33/45/17 42/63/17
f 43/67/126 9/73/126 17/68/126
f 44/69/127 17/68/127 1/70/127
f 46/72/128 15/75/128 9/73/128
f 47/78/129 49/83/129 5/79/129
f 45/80/130 1/187/130 3/81/130
f 48/82/131 3/81/131 5/79/131
f 50/84/132 30/94/133 38/85/133
f 52/90/134 24/89/134 26/91/134
f 50/84/135 54/95/136 36/93/136
f 54/95/137 56/188/137 27/96/137
f 53/92/138 26/91/138 35/97/138
f 56/99/139 55/98/139 35/97/139
f 57/101/140 77/132/140 58/102/140
f 59/103/141 58/102/141 60/104/142
f 62/106/143 70/114/143 63/107/143
f 65/109/144 71/116/145 66/110/146
f 70/114/147 61/105/147 60/104/148
f 62/115/149 64/134/149 71/116/149
f 73/118/150 67/111/150 66/110/151
f 57/130/152 73/118/152 68/112/153
f 78/135/153 90/183/154 81/136/155
f 83/138/156 67/189/157 84/139/158
f 85/140/159 80/144/160 86/141/161
f 87/142/81 91/184/162 86/143/81
f 88/145/163 61/190/164 79/146/165
f 89/147/166 82/137/87 81/148/87
f 57/149/167 6/191/167 47/150/167
f 46/152/168 6/192/168 57/153/168
f 43/155/169 46/152/169 73/154/170
f 90/157/171 67/156/172 43/155/172
f 81/159/173 90/157/174 44/158/173
f 59/151/175 47/150/175 49/161/175
f 48/163/176 88/166/177 81/164/176
f 49/161/178 61/162/178 88/166/179
f 54/167/180 56/193/180 86/168/180
f 50/170/181 67/194/182 83/169/183
f 65/171/184 67/194/185 50/170/186
f 62/173/187 65/171/188 51/172/187
f 52/175/189 70/179/189 62/176/189
f 53/178/190 61/195/190 70/179/190
f 91/180/191 61/195/192 53/178/192
f 86/182/193 56/196/193 55/181/193
f 84/139/194 67/197/195 90/183/196
f 79/146/197 61/198/198 91/184/199
f 92/199/200 79/146/201 87/142/202 80/144/203
f 82/137/204 89/147/205 79/146/206 92/199/207
f 78/135/208 82/137/209 92/199/210 84/139/211
f 84/139/212 92/199/213 80/144/214 85/140/215
