# Blender v2.80 (sub 75) OBJ File: 'WeaponModels.blend'
# www.blender.org
mtllib Trident.mtl
o Trident_Circle.006
v -0.011809 1.073750 -0.175492
v -0.057981 1.058901 -0.179455
v -0.030934 1.031818 -0.177062
v -0.003888 1.058843 -0.174641
v -0.050059 1.076556 -0.178197
v -0.050059 1.039745 -0.177313
v -0.032355 1.085896 -0.172864
v -0.011809 1.039726 -0.175728
v -0.011731 1.074078 0.156101
v -0.058092 1.054914 0.152456
v -0.003777 1.054861 0.156779
v -0.050138 1.074106 0.153671
v -0.050138 1.035683 0.154294
v -0.032471 1.082354 0.154383
v -0.030935 1.027724 0.154483
v -0.011731 1.035665 0.155716
v -0.014650 1.267554 -0.178486
v -0.033775 1.535953 -0.197611
v -0.033775 1.354754 -0.260783
v -0.056493 1.354754 -0.197611
v -0.060822 1.269230 -0.197611
v -0.033775 1.267346 -0.224657
v -0.006729 1.266670 -0.197611
v -0.033775 1.354754 -0.134438
v -0.052900 1.268993 -0.178486
v -0.011433 1.354754 -0.197611
v -0.052900 1.267658 -0.216736
v -0.033775 1.267620 -0.170564
v -0.014650 1.266816 -0.216736
v -0.014570 1.085829 -0.178405
v -0.060936 1.087330 -0.197610
v -0.006614 1.085037 -0.197610
v -0.052982 1.087117 -0.178405
v -0.052982 1.085923 -0.216816
v -0.033776 1.085644 -0.224772
v -0.014570 1.085169 -0.216817
v -0.014883 1.259250 0.198720
v -0.034007 1.527649 0.179596
v -0.034007 1.346451 0.116423
v -0.056725 1.346451 0.179596
v -0.061054 1.260926 0.179596
v -0.034007 1.259043 0.152549
v -0.006961 1.258366 0.179596
v -0.034007 1.346451 0.242768
v -0.053132 1.260690 0.198720
v -0.011665 1.346451 0.179596
v -0.053132 1.259355 0.160471
v -0.034007 1.259316 0.206642
v -0.014883 1.258512 0.160471
v -0.014804 1.082863 0.198799
v -0.061165 1.084369 0.179596
v -0.006850 1.082069 0.179596
v -0.053211 1.084156 0.198798
v -0.053211 1.082957 0.160393
v -0.034008 1.082922 0.206753
v -0.014804 1.082200 0.160392
v -0.011778 1.368393 0.012442
v -0.030903 1.636792 -0.006682
v -0.030903 1.455594 -0.069855
v -0.053621 1.455594 -0.006682
v -0.057950 1.370069 -0.006682
v -0.030903 1.368186 -0.033729
v -0.003857 1.367509 -0.006682
v -0.030903 1.455594 0.056490
v -0.050028 1.369833 0.012442
v -0.008561 1.455594 -0.006682
v -0.050028 1.368498 -0.025807
v -0.030903 1.368459 0.020364
v -0.011778 1.367655 -0.025807
v -0.011173 0.002462 0.013053
v -0.058810 0.002816 -0.006677
v -0.002998 0.002273 -0.006680
v -0.050641 0.002766 0.013046
v -0.050640 0.002482 -0.026409
v -0.030909 0.002474 0.021223
v -0.030906 0.002417 -0.034588
v -0.011173 0.002305 -0.026417
v -0.011375 1.038181 0.012849
v -0.011577 1.071855 0.012646
v -0.058237 1.054790 -0.006681
v -0.003570 1.054978 -0.006682
v -0.050436 1.036912 0.012845
v -0.050232 1.073522 0.012644
v -0.050436 1.038527 -0.026209
v -0.050232 1.073025 -0.026008
v -0.030907 1.028117 0.020937
v -0.030905 1.081072 0.020650
v -0.030904 1.082152 -0.034016
v -0.030905 1.029447 -0.034302
v -0.011577 1.072641 -0.026010
v -0.011375 1.035786 -0.026213
vt 0.000000 0.000000
vt 0.000000 0.000000
vt 0.000000 0.000000
vt 0.000000 0.000000
vt 0.000000 0.000000
vt 0.000000 0.000000
vt 0.000000 0.000000
vt 0.000000 0.000000
vt 0.000000 0.000000
vt 0.000000 0.000000
vt 0.000000 0.000000
vt 0.000000 0.000000
vt 0.000000 0.000000
vt 0.000000 0.000000
vt 0.000000 0.000000
vt 0.000000 0.000000
vt 0.000000 0.000000
vt 0.000000 0.000000
vt 0.000000 0.000000
vt 0.000000 0.000000
vt 0.000000 0.000000
vt 0.000000 0.000000
vt 0.000000 0.000000
vt 0.000000 0.000000
vt 0.000000 0.000000
vt 0.000000 0.000000
vt 0.000000 0.000000
vt 0.000000 0.000000
vt 0.000000 0.000000
vt 0.000000 0.000000
vt 0.000000 0.000000
vt 0.000000 0.000000
vt 0.000000 0.000000
vt 0.000000 0.000000
vt 0.000000 0.000000
vt 0.000000 0.000000
vt 0.000000 0.000000
vt 0.000000 0.000000
vt 0.000000 0.000000
vt 0.000000 0.000000
vt 0.000000 0.000000
vt 0.000000 0.000000
vt 0.000000 0.000000
vt 0.000000 0.000000
vt 0.000000 0.000000
vt 0.000000 0.000000
vt 0.000000 0.000000
vt 0.000000 0.000000
vt 0.000000 0.000000
vt 0.000000 0.000000
vt 0.000000 0.000000
vt 0.000000 0.000000
vt 0.000000 0.000000
vt 0.000000 0.000000
vt 0.000000 0.000000
vt 0.000000 0.000000
vt 0.000000 0.000000
vt 0.000000 0.000000
vt 0.000000 0.000000
vt 0.000000 0.000000
vt 0.000000 0.000000
vt 0.000000 0.000000
vt 0.000000 0.000000
vt 0.000000 0.000000
vt 0.000000 0.000000
vt 0.000000 0.000000
vt 0.000000 0.000000
vt 0.000000 0.000000
vt 0.000000 0.000000
vt 0.000000 0.000000
vt 0.000000 0.000000
vt 0.000000 0.000000
vt 0.000000 0.000000
vt 0.000000 0.000000
vt 0.000000 0.000000
vt 0.000000 0.000000
vt 0.000000 0.000000
vt 0.000000 0.000000
vt 0.000000 0.000000
vt 0.000000 0.000000
vt 0.000000 0.000000
vt 0.000000 0.000000
vt 0.000000 0.000000
vt 0.000000 0.000000
vt 0.000000 0.000000
vt 0.000000 0.000000
vt 0.000000 0.000000
vt 0.000000 0.000000
vt 0.000000 0.000000
vt 0.000000 0.000000
vt 0.000000 0.000000
vn 0.3827 0.0006 -0.9239
vn 0.9239 0.0006 -0.3827
vn 0.3826 -0.0087 0.9239
vn -0.9239 0.0006 0.3827
vn -0.9215 0.0466 -0.3855
vn 0.9239 0.0006 0.3827
vn -0.3826 0.0006 0.9239
vn 0.9229 0.0493 -0.3819
vn -0.9239 0.0006 -0.3827
vn -0.9345 0.1172 -0.3361
vn 0.9339 -0.1369 0.3303
vn -0.9319 -0.1389 0.3351
vn -0.9345 0.1172 0.3361
vn 0.9365 0.1155 0.3312
vn -0.9319 -0.1385 -0.3351
vn 0.9365 0.1155 -0.3312
vn -0.3827 0.0006 -0.9239
vn 0.3805 0.1832 -0.9064
vn -0.3736 0.1842 -0.9091
vn -0.9227 0.0467 0.3828
vn 0.9339 -0.1365 -0.3303
vn 0.9236 0.0493 0.3803
vn 0.3766 0.1852 0.9077
vn -0.3643 0.1881 0.9121
vn 0.3220 0.0006 -0.9467
vn 0.3827 0.0006 0.9239
vn -0.2786 -0.0124 -0.9603
vn -0.8336 -0.3886 -0.3926
vn -0.2593 -0.6483 -0.7159
vn -0.7536 0.2964 0.5867
vn -0.2620 -0.0535 0.9636
vn 0.2860 0.2859 0.9146
vn 0.8886 0.2890 0.3562
vn 0.3093 -0.6274 -0.7147
vn 0.8291 -0.3174 -0.4604
vn -0.6414 0.3102 -0.7017
vn -0.2196 0.5406 -0.8121
vn 0.2774 0.5287 -0.8022
vn 0.8839 0.3551 -0.3044
vn -0.8456 -0.4068 0.3457
vn -0.3260 -0.6505 0.6860
vn 0.8135 -0.3623 0.4549
vn 0.2892 -0.6497 0.7031
vn 0.3830 0.0009 -0.9237
vn 0.9242 0.0008 -0.3820
vn 0.3827 0.0009 0.9239
vn -0.9242 0.0008 0.3820
vn 0.9239 0.0009 0.3826
vn -0.3830 0.0009 0.9237
vn -0.9239 0.0009 -0.3827
vn -0.3827 0.0009 -0.9239
vn -0.0052 -1.0000 0.0020
vn -0.3829 0.0003 -0.9238
vn -0.9239 0.0003 0.3827
vn -0.3827 0.0003 0.9239
vn 0.3825 0.0003 0.9240
vn 0.9239 0.0003 -0.3827
vn 0.3826 0.0003 -0.9239
vn -0.4395 -0.8982 -0.0060
vn 0.4199 -0.9073 -0.0206
vn 0.9123 -0.4094 -0.0084
vn -0.9239 -0.3827 -0.0054
vn -0.3827 -0.9238 -0.0153
vn -0.9075 -0.4200 -0.0080
vn 0.3830 -0.9236 -0.0154
vn 0.9240 -0.3822 -0.0128
vn 0.4082 0.9129 0.0071
vn -0.9240 -0.3823 -0.0014
vn -0.9238 0.3829 -0.0010
vn -0.4225 0.9062 -0.0136
vn 0.3709 0.9286 -0.0046
vn 0.9240 0.3823 -0.0049
vn 0.9239 -0.3826 -0.0044
vn -0.4532 0.8913 0.0146
vn -0.9239 0.0003 -0.3826
vn 0.9239 0.0003 0.3827
vn 0.2974 0.0006 0.9547
vn -0.2602 -0.0143 0.9654
vn 0.3825 -0.0063 -0.9239
vn -0.3827 0.0006 0.9239
vn -0.8857 -0.3118 -0.3440
vn -0.3050 -0.6302 -0.7141
vn -0.8976 -0.2411 0.3691
vn 0.7939 0.4455 0.4138
vn 0.2847 -0.6274 -0.7248
vn 0.8863 -0.2798 -0.3690
vn -0.8844 0.2631 -0.3856
vn 0.8105 0.4823 -0.3324
vn -0.8894 -0.3385 0.3073
vn -0.2835 -0.6677 0.6884
vn 0.8984 -0.2182 0.3812
vn 0.2218 -0.6495 0.7273
vn 0.3827 0.0009 -0.9239
vn 0.9239 0.0009 -0.3827
vn 0.3830 0.0009 0.9238
vn -0.9239 0.0009 0.3827
vn 0.9241 0.0008 0.3821
vn -0.3826 0.0009 0.9239
vn -0.9242 0.0008 -0.3820
vn -0.3831 0.0009 -0.9237
vn -0.0235 -0.9997 0.0072
vn -0.0045 -1.0000 -0.0029
vn -0.0045 -1.0000 0.0003
vn 0.0040 -0.9999 0.0112
vn -0.0178 -0.9998 0.0072
vn -0.3827 0.0003 -0.9239
vn -0.9285 0.0005 0.3714
vn -0.3828 0.0003 0.9238
vn 0.3824 0.0003 0.9240
vn 0.9284 0.0005 -0.3715
vn -0.5105 -0.8597 -0.0178
vn 0.4732 -0.8805 -0.0287
vn 0.9126 -0.4089 -0.0084
vn -0.9068 -0.4213 -0.0114
vn -0.4244 -0.9054 -0.0084
vn -0.8830 -0.4694 -0.0021
vn 0.3183 -0.9476 -0.0259
vn 0.9299 -0.3677 -0.0102
vn 0.3829 0.9238 0.0028
vn -0.9170 -0.3988 0.0011
vn -0.9198 0.3925 0.0005
vn -0.3626 0.9319 -0.0036
vn 0.4258 0.9047 -0.0136
vn 0.9041 0.4272 0.0014
vn 0.9073 -0.4206 0.0008
vn -0.3823 0.9240 0.0026
vn -0.9285 0.0005 -0.3713
vn 0.9285 0.0005 0.3714
usemtl None
s off
f 35/1/1 29/2/1 36/3/1
f 36/3/2 23/4/2 32/5/2
f 7/6/3 17/7/3 28/8/3
f 31/9/4 25/10/4 21/11/4
f 27/12/5 21/11/5 20/13/5
f 30/14/6 23/4/6 17/7/6
f 33/15/7 28/8/7 25/10/7
f 23/4/8 29/2/8 26/16/8
f 31/9/9 27/12/9 34/17/9
f 18/18/10 19/19/10 20/13/10
f 26/16/11 24/20/11 28/8/11
f 20/13/12 28/8/12 24/20/12
f 18/18/13 20/13/13 24/20/13
f 18/18/14 24/20/14 26/16/14
f 20/13/15 19/19/15 22/21/15
f 18/18/16 26/16/16 19/19/16
f 34/17/17 22/21/17 35/1/17
f 29/2/18 22/21/18 26/16/18
f 22/21/19 27/12/19 20/13/19
f 21/11/20 25/10/20 20/13/20
f 26/16/21 22/21/21 19/19/21
f 17/7/22 23/4/22 26/16/22
f 28/8/23 17/7/23 26/16/23
f 25/10/24 28/8/24 20/13/24
f 14/22/25 49/23/25 56/24/25
f 56/24/2 43/25/2 52/26/2
f 55/27/26 37/28/26 48/29/26
f 51/30/4 45/31/4 41/32/4
f 47/33/5 41/32/5 40/34/5
f 50/35/6 43/25/6 37/28/6
f 53/36/7 48/29/7 45/31/7
f 43/25/8 49/23/8 46/37/8
f 51/30/9 47/33/9 54/38/9
f 38/39/10 39/40/10 40/34/10
f 46/37/11 44/41/11 48/29/11
f 40/34/12 48/29/12 44/41/12
f 38/39/13 40/34/13 44/41/13
f 38/39/14 44/41/14 46/37/14
f 40/34/15 39/40/15 42/42/15
f 38/39/16 46/37/16 39/40/16
f 54/38/27 42/42/27 14/22/27
f 49/23/18 42/42/18 46/37/18
f 42/42/19 47/33/19 40/34/19
f 41/32/20 45/31/20 40/34/20
f 46/37/21 42/42/21 39/40/21
f 37/28/22 43/25/22 46/37/22
f 48/29/23 37/28/23 46/37/23
f 45/31/24 48/29/24 40/34/24
f 2/43/28 34/17/28 6/44/28
f 6/44/29 35/1/29 3/45/29
f 5/46/30 31/9/30 2/43/30
f 5/46/31 7/6/31 33/15/31
f 30/14/32 7/6/32 1/47/32
f 1/47/33 32/5/33 30/14/33
f 3/45/34 36/3/34 8/48/34
f 8/48/35 32/5/35 4/49/35
f 10/50/36 54/38/36 12/51/36
f 14/22/37 12/51/37 54/38/37
f 14/22/38 56/24/38 9/52/38
f 9/52/39 52/26/39 11/53/39
f 10/50/40 53/36/40 51/30/40
f 13/54/41 55/27/41 53/36/41
f 11/53/42 50/35/42 16/55/42
f 15/56/43 50/35/43 55/27/43
f 88/57/44 69/58/44 90/59/44
f 90/59/45 63/60/45 81/61/45
f 87/62/46 57/63/46 68/64/46
f 83/65/47 61/66/47 80/67/47
f 67/68/5 61/66/5 60/69/5
f 79/70/48 63/60/48 57/63/48
f 87/62/49 65/71/49 83/65/49
f 63/60/8 69/58/8 66/72/8
f 85/73/50 61/66/50 67/68/50
f 58/74/10 59/75/10 60/69/10
f 66/72/11 64/76/11 68/64/11
f 60/69/12 68/64/12 64/76/12
f 58/74/13 60/69/13 64/76/13
f 58/74/14 64/76/14 66/72/14
f 60/69/15 59/75/15 62/77/15
f 58/74/16 66/72/16 59/75/16
f 88/57/51 67/68/51 62/77/51
f 69/58/18 62/77/18 66/72/18
f 62/77/19 67/68/19 60/69/19
f 61/66/20 65/71/20 60/69/20
f 66/72/21 62/77/21 59/75/21
f 57/63/22 63/60/22 66/72/22
f 68/64/23 57/63/23 66/72/23
f 65/71/24 68/64/24 60/69/24
f 74/78/52 72/79/52 75/80/52
f 74/78/53 89/81/53 76/82/53
f 82/83/54 71/84/54 73/85/54
f 73/85/55 86/86/55 82/83/55
f 70/87/56 86/86/56 75/80/56
f 91/88/57 72/79/57 77/89/57
f 77/89/58 89/81/58 91/88/58
f 88/57/59 1/47/59 90/59/59
f 5/46/60 88/57/60 85/73/60
f 2/43/61 85/73/61 80/67/61
f 84/90/62 2/43/62 6/44/62
f 89/81/63 6/44/63 3/45/63
f 90/59/64 4/49/64 81/61/64
f 8/48/65 89/81/65 3/45/65
f 4/49/66 91/88/66 8/48/66
f 13/54/67 86/86/67 82/83/67
f 10/50/68 82/83/68 13/54/68
f 83/65/69 10/50/69 12/51/69
f 87/62/70 12/51/70 14/22/70
f 9/52/71 87/62/71 14/22/71
f 11/53/72 79/70/72 9/52/72
f 78/91/73 11/53/73 16/55/73
f 86/86/74 16/55/74 78/91/74
f 71/84/75 84/90/75 74/78/75
f 72/79/76 78/91/76 70/87/76
f 35/1/1 22/21/1 29/2/1
f 36/3/2 29/2/2 23/4/2
f 7/6/77 30/14/77 17/7/77
f 31/9/4 33/15/4 25/10/4
f 30/14/6 32/5/6 23/4/6
f 33/15/78 7/6/78 28/8/78
f 31/9/9 21/11/9 27/12/9
f 34/17/17 27/12/17 22/21/17
f 14/22/79 42/42/79 49/23/79
f 56/24/2 49/23/2 43/25/2
f 55/27/26 50/35/26 37/28/26
f 51/30/4 53/36/4 45/31/4
f 50/35/6 52/26/6 43/25/6
f 53/36/80 55/27/80 48/29/80
f 51/30/9 41/32/9 47/33/9
f 54/38/17 47/33/17 42/42/17
f 2/43/81 31/9/81 34/17/81
f 6/44/82 34/17/82 35/1/82
f 5/46/83 33/15/83 31/9/83
f 1/47/84 4/49/84 32/5/84
f 3/45/85 35/1/85 36/3/85
f 8/48/86 36/3/86 32/5/86
f 10/50/87 51/30/87 54/38/87
f 9/52/88 56/24/88 52/26/88
f 10/50/89 13/54/89 53/36/89
f 13/54/90 15/56/90 55/27/90
f 11/53/91 52/26/91 50/35/91
f 15/56/92 16/55/92 50/35/92
f 88/57/93 62/77/93 69/58/93
f 90/59/94 69/58/94 63/60/94
f 87/62/95 79/70/95 57/63/95
f 83/65/96 65/71/96 61/66/96
f 79/70/97 81/61/97 63/60/97
f 87/62/98 68/64/98 65/71/98
f 85/73/99 80/67/99 61/66/99
f 88/57/100 85/73/100 67/68/100
f 71/84/101 74/78/101 73/85/101
f 74/78/102 76/82/102 77/89/102
f 72/79/103 74/78/103 77/89/103
f 72/79/104 70/87/104 75/80/104
f 75/80/105 73/85/105 74/78/105
f 74/78/106 84/90/106 89/81/106
f 82/83/107 80/67/107 71/84/107
f 73/85/108 75/80/108 86/86/108
f 70/87/109 78/91/109 86/86/109
f 91/88/110 81/61/110 72/79/110
f 77/89/58 76/82/58 89/81/58
f 88/57/111 7/6/111 1/47/111
f 5/46/112 7/6/112 88/57/112
f 2/43/113 5/46/113 85/73/113
f 84/90/114 80/67/114 2/43/114
f 89/81/115 84/90/115 6/44/115
f 90/59/116 1/47/116 4/49/116
f 8/48/117 91/88/117 89/81/117
f 4/49/118 81/61/118 91/88/118
f 13/54/119 15/56/119 86/86/119
f 10/50/120 80/67/120 82/83/120
f 83/65/121 80/67/121 10/50/121
f 87/62/122 83/65/122 12/51/122
f 9/52/123 79/70/123 87/62/123
f 11/53/124 81/61/124 79/70/124
f 78/91/125 81/61/125 11/53/125
f 86/86/126 15/56/126 16/55/126
f 71/84/127 80/67/127 84/90/127
f 72/79/128 81/61/128 78/91/128
l 75 76
l 71 72
